<svg width="265" height="224" viewBox="0 0 265 224" fill="none" xmlns="http://www.w3.org/2000/svg">
<path fill-rule="evenodd" clip-rule="evenodd" d="M203.498 2.62186C228.953 10.4936 262.267 25.3811 263.834 51.9958C265.504 80.3347 222.795 90.0326 210.145 115.464C199.857 136.149 212.789 163.537 199.099 182.147C183.061 203.948 158.14 224.597 131.159 222.838C104.213 221.082 90.5004 190.421 69.3238 173.687C48.2587 157.041 17.6065 150.047 7.53518 125.149C-2.81139 99.5705 -1.42722 65.2866 17.2405 44.9291C35.8385 24.6476 69.4307 35.5101 96.0561 28.6152C111.129 24.712 123.878 17.0564 139.011 13.3953C160.727 8.14155 182.167 -3.97438 203.498 2.62186Z" stroke="#00AEEF"/>
</svg>
