<svg width="198" height="38" viewBox="0 0 198 38" fill="none" xmlns="http://www.w3.org/2000/svg">
<g clip-path="url(#clip0_35_220)">
<mask id="mask0_35_220" style="mask-type:luminance" maskUnits="userSpaceOnUse" x="0" y="17" width="21" height="14">
<path d="M0.202515 17.4868H20.1314V30.7706H0.202515V17.4868Z" fill="white"/>
</mask>
<g mask="url(#mask0_35_220)">
<path d="M13.487 17.9868H13.5316C15.7089 18.0024 17.7169 19.1699 18.8067 21.0577C19.9037 22.958 19.9037 25.2993 18.8067 27.1996C17.7094 29.1001 15.6817 30.2706 13.4875 30.2706H0.712926C0.838406 27.0618 2.16811 24.0103 4.44749 21.7312L4.44751 21.7311C6.84491 19.3336 10.0963 17.9868 13.487 17.9868Z" stroke="#00AEEF"/>
</g>
<mask id="mask1_35_220" style="mask-type:luminance" maskUnits="userSpaceOnUse" x="20" y="17" width="7" height="14">
<path d="M20.0786 17.4868H26.7706V30.7706H20.0786V17.4868Z" fill="white"/>
</mask>
<g mask="url(#mask1_35_220)">
<path d="M26.2708 18.0074V30.2504C24.825 30.1324 23.4611 29.5052 22.4277 28.4718C21.276 27.3199 20.6288 25.7578 20.6287 24.1289L26.2708 18.0074ZM26.2708 18.0074C24.825 18.1254 23.4611 18.7526 22.4277 19.786C21.2761 20.9376 20.6288 22.4999 20.6287 24.1287L26.2708 18.0074Z" stroke="#00AEEF"/>
</g>
<mask id="mask2_35_220" style="mask-type:luminance" maskUnits="userSpaceOnUse" x="0" y="4" width="27" height="14">
<path d="M0.202515 4.20251H26.7706V17.4868H0.202515V4.20251Z" fill="white"/>
</mask>
<g mask="url(#mask2_35_220)">
<path d="M26.2604 16.9864C26.1349 13.7774 24.8052 10.7262 22.5258 8.44687L22.8737 8.09892L22.5258 8.44686C20.1284 6.04947 16.8772 4.70265 13.4868 4.70251C13.4867 4.70251 13.4865 4.70251 13.4863 4.70251H0.712286C0.837767 7.91133 2.16746 10.9627 4.44685 13.242L26.2604 16.9864ZM26.2604 16.9864H13.4864C10.0958 16.9864 6.84439 15.6393 4.44686 13.242L26.2604 16.9864Z" stroke="#00AEEF"/>
</g>
</g>
<mask id="path-7-outside-1_35_220" maskUnits="userSpaceOnUse" x="27" y="3" width="171" height="30" fill="black">
<rect fill="white" x="27" y="3" width="171" height="30"/>
<path d="M28.7603 25.49C35.7017 25.87 40.401 26.06 42.8583 26.06C43.441 26.06 43.897 25.8953 44.2263 25.566C44.581 25.2113 44.7583 24.7427 44.7583 24.16V20.74H36.0183C33.3583 20.74 31.4203 20.1447 30.2043 18.954C29.0137 17.738 28.4183 15.8 28.4183 13.14V12C28.4183 9.34 29.0137 7.41467 30.2043 6.224C31.4203 5.008 33.3583 4.4 36.0183 4.4H49.3563V9.72H37.5383C36.0183 9.72 35.2583 10.48 35.2583 12V12.76C35.2583 14.28 36.0183 15.04 37.5383 15.04H44.3783C46.861 15.04 48.685 15.6227 49.8503 16.788C51.0157 17.9533 51.5983 19.7773 51.5983 22.26V24.16C51.5983 26.6427 51.0157 28.4667 49.8503 29.632C48.685 30.7973 46.861 31.38 44.3783 31.38C43.0863 31.38 41.7183 31.3547 40.2743 31.304L36.7783 31.152C34.1943 31.0253 31.5217 30.848 28.7603 30.62V25.49ZM61.8554 31H55.0154V4.4H61.8554V14.85H65.2754L71.2034 4.4H78.4234L70.9754 17.51L78.3854 31H71.1654L65.2754 20.17H61.8554V31ZM77.655 4.4H84.875L91.145 17.32L97.415 4.4H104.635L94.565 23.97V31H87.725V23.97L77.655 4.4ZM106.152 4.4H121.352C123.835 4.4 125.659 4.97 126.824 6.11C127.989 7.22467 128.572 8.93467 128.572 11.24C128.572 12.76 128.243 14.0013 127.584 14.964C126.925 15.9013 126.115 16.56 125.152 16.94C127.204 17.4973 128.597 18.8653 129.332 21.044C129.585 21.8293 129.712 22.7413 129.712 23.78C129.712 26.2627 129.129 28.0867 127.964 29.252C126.799 30.4173 124.975 31 122.492 31H106.152V4.4ZM122.872 22.64C122.872 21.12 122.112 20.36 120.592 20.36H112.992V25.68H120.592C122.112 25.68 122.872 24.92 122.872 23.4V22.64ZM121.732 12C121.732 10.48 120.972 9.72 119.452 9.72H112.992V15.04H119.452C120.972 15.04 121.732 14.28 121.732 12.76V12ZM133.131 4.4H149.091C151.751 4.4 153.676 5.008 154.867 6.224C156.083 7.41467 156.691 9.34 156.691 12V15.42C156.691 17.5227 156.336 19.1567 155.627 20.322C154.943 21.4873 153.841 22.26 152.321 22.64L157.071 31H149.661L145.291 23.02H139.971V31H133.131V4.4ZM149.851 12C149.851 10.48 149.091 9.72 147.571 9.72H139.971V17.7H147.571C149.091 17.7 149.851 16.94 149.851 15.42V12ZM173.02 31H159.34V25.68H162.76V9.72H159.34V4.4H173.02V9.72H169.6V25.68H173.02V31ZM196.957 30.62C191.308 31.1267 186.621 31.38 182.897 31.38C180.415 31.38 178.591 30.7973 177.425 29.632C176.26 28.4667 175.677 26.6427 175.677 24.16V12C175.677 9.34 176.273 7.41467 177.463 6.224C178.679 5.008 180.617 4.4 183.277 4.4H196.957V9.72H184.797C183.277 9.72 182.517 10.48 182.517 12V24.16C182.517 24.7427 182.682 25.2113 183.011 25.566C183.366 25.8953 183.809 26.06 184.341 26.06C184.873 26.06 185.456 26.06 186.089 26.06C186.723 26.0347 187.381 26.0093 188.065 25.984C188.749 25.9587 189.433 25.9333 190.117 25.908C190.827 25.8827 191.726 25.832 192.815 25.756C193.93 25.68 195.311 25.5913 196.957 25.49V30.62Z"/>
</mask>
<path d="M28.7603 25.49L28.815 24.4915L27.7603 24.4338V25.49H28.7603ZM44.2263 25.566L43.5192 24.8589L43.5192 24.8589L44.2263 25.566ZM44.7583 20.74H45.7583V19.74H44.7583V20.74ZM30.2043 18.954L29.4898 19.6536L29.4972 19.6611L29.5047 19.6685L30.2043 18.954ZM30.2043 6.224L30.9114 6.93111L30.9114 6.93111L30.2043 6.224ZM49.3563 4.4H50.3563V3.4H49.3563V4.4ZM49.3563 9.72V10.72H50.3563V9.72H49.3563ZM49.8503 29.632L49.1432 28.9249L49.1432 28.9249L49.8503 29.632ZM40.2743 31.304L40.2309 32.3031L40.2393 32.3034L40.2743 31.304ZM36.7783 31.152L36.7294 32.1508L36.7349 32.1511L36.7783 31.152ZM28.7603 30.62H27.7603V31.5408L28.678 31.6166L28.7603 30.62ZM28.7057 26.4885C35.6436 26.8683 40.3695 27.06 42.8583 27.06V25.06C40.4325 25.06 35.7597 24.8717 28.815 24.4915L28.7057 26.4885ZM42.8583 27.06C43.6359 27.06 44.3721 26.8344 44.9334 26.2731L43.5192 24.8589C43.4219 24.9562 43.2461 25.06 42.8583 25.06V27.06ZM44.9334 26.2731C45.506 25.7005 45.7583 24.9615 45.7583 24.16H43.7583C43.7583 24.5238 43.6559 24.7222 43.5192 24.8589L44.9334 26.2731ZM45.7583 24.16V20.74H43.7583V24.16H45.7583ZM44.7583 19.74H36.0183V21.74H44.7583V19.74ZM36.0183 19.74C33.4772 19.74 31.8513 19.1671 30.9039 18.2395L29.5047 19.6685C30.9894 21.1223 33.2394 21.74 36.0183 21.74V19.74ZM30.9188 18.2544C29.9913 17.3071 29.4183 15.6811 29.4183 13.14H27.4183C27.4183 15.9189 28.0361 18.1689 29.4898 19.6536L30.9188 18.2544ZM29.4183 13.14V12H27.4183V13.14H29.4183ZM29.4183 12C29.4183 9.45646 29.9923 7.85026 30.9114 6.93111L29.4972 5.51689C28.035 6.97907 27.4183 9.22354 27.4183 12H29.4183ZM30.9114 6.93111C31.8592 5.98335 33.482 5.4 36.0183 5.4V3.4C33.2346 3.4 30.9815 4.03264 29.4972 5.51689L30.9114 6.93111ZM36.0183 5.4H49.3563V3.4H36.0183V5.4ZM48.3563 4.4V9.72H50.3563V4.4H48.3563ZM49.3563 8.72H37.5383V10.72H49.3563V8.72ZM37.5383 8.72C36.6242 8.72 35.7549 8.94921 35.1212 9.58289C34.4875 10.2166 34.2583 11.0859 34.2583 12H36.2583C36.2583 11.3941 36.4091 11.1234 36.5354 10.9971C36.6617 10.8708 36.9325 10.72 37.5383 10.72V8.72ZM34.2583 12V12.76H36.2583V12H34.2583ZM34.2583 12.76C34.2583 13.6741 34.4875 14.5434 35.1212 15.1771C35.7549 15.8108 36.6242 16.04 37.5383 16.04V14.04C36.9325 14.04 36.6617 13.8892 36.5354 13.7629C36.4091 13.6366 36.2583 13.3659 36.2583 12.76H34.2583ZM37.5383 16.04H44.3783V14.04H37.5383V16.04ZM44.3783 16.04C46.7283 16.04 48.2419 16.5938 49.1432 17.4951L50.5574 16.0809C49.128 14.6515 46.9937 14.04 44.3783 14.04V16.04ZM49.1432 17.4951C50.0445 18.3964 50.5983 19.91 50.5983 22.26H52.5983C52.5983 19.6446 51.9868 17.5103 50.5574 16.0809L49.1432 17.4951ZM50.5983 22.26V24.16H52.5983V22.26H50.5983ZM50.5983 24.16C50.5983 26.51 50.0445 28.0236 49.1432 28.9249L50.5574 30.3391C51.9868 28.9097 52.5983 26.7754 52.5983 24.16H50.5983ZM49.1432 28.9249C48.2419 29.8262 46.7283 30.38 44.3783 30.38V32.38C46.9937 32.38 49.128 31.7685 50.5574 30.3391L49.1432 28.9249ZM44.3783 30.38C43.0993 30.38 41.743 30.3549 40.3094 30.3046L40.2393 32.3034C41.6936 32.3544 43.0734 32.38 44.3783 32.38V30.38ZM40.3178 30.3049L36.8218 30.1529L36.7349 32.1511L40.2309 32.3031L40.3178 30.3049ZM36.8273 30.1532C34.2552 30.0271 31.5936 29.8505 28.8426 29.6234L28.678 31.6166C31.4497 31.8455 34.1335 32.0236 36.7294 32.1508L36.8273 30.1532ZM29.7603 30.62V25.49H27.7603V30.62H29.7603ZM61.8554 31V32H62.8554V31H61.8554ZM55.0154 31H54.0154V32H55.0154V31ZM55.0154 4.4V3.4H54.0154V4.4H55.0154ZM61.8554 4.4H62.8554V3.4H61.8554V4.4ZM61.8554 14.85H60.8554V15.85H61.8554V14.85ZM65.2754 14.85V15.85H65.8578L66.1451 15.3434L65.2754 14.85ZM71.2034 4.4V3.4H70.6209L70.3336 3.90659L71.2034 4.4ZM78.4234 4.4L79.2928 4.89396L80.1416 3.4H78.4234V4.4ZM70.9754 17.51L70.1059 17.016L69.8299 17.5018L70.0989 17.9914L70.9754 17.51ZM78.3854 31V32H80.0756L79.2618 30.5186L78.3854 31ZM71.1654 31L70.2869 31.4778L70.5709 32H71.1654V31ZM65.2754 20.17L66.1538 19.6922L65.8698 19.17H65.2754V20.17ZM61.8554 20.17V19.17H60.8554V20.17H61.8554ZM61.8554 30H55.0154V32H61.8554V30ZM56.0154 31V4.4H54.0154V31H56.0154ZM55.0154 5.4H61.8554V3.4H55.0154V5.4ZM60.8554 4.4V14.85H62.8554V4.4H60.8554ZM61.8554 15.85H65.2754V13.85H61.8554V15.85ZM66.1451 15.3434L72.0731 4.89341L70.3336 3.90659L64.4056 14.3566L66.1451 15.3434ZM71.2034 5.4H78.4234V3.4H71.2034V5.4ZM77.5539 3.90603L70.1059 17.016L71.8448 18.004L79.2928 4.89396L77.5539 3.90603ZM70.0989 17.9914L77.5089 31.4814L79.2618 30.5186L71.8518 17.0286L70.0989 17.9914ZM78.3854 30H71.1654V32H78.3854V30ZM72.0438 30.5222L66.1538 19.6922L64.3969 20.6478L70.2869 31.4778L72.0438 30.5222ZM65.2754 19.17H61.8554V21.17H65.2754V19.17ZM60.8554 20.17V31H62.8554V20.17H60.8554ZM77.655 4.4V3.4H76.0159L76.7659 4.85754L77.655 4.4ZM84.875 4.4L85.7747 3.9634L85.5013 3.4H84.875V4.4ZM91.145 17.32L90.2454 17.7566L91.145 19.6104L92.0447 17.7566L91.145 17.32ZM97.415 4.4V3.4H96.7888L96.5154 3.9634L97.415 4.4ZM104.635 4.4L105.524 4.85754L106.274 3.4H104.635V4.4ZM94.565 23.97L93.6759 23.5125L93.565 23.7278V23.97H94.565ZM94.565 31V32H95.565V31H94.565ZM87.725 31H86.725V32H87.725V31ZM87.725 23.97H88.725V23.7278L88.6142 23.5125L87.725 23.97ZM77.655 5.4H84.875V3.4H77.655V5.4ZM83.9754 4.8366L90.2454 17.7566L92.0447 16.8834L85.7747 3.9634L83.9754 4.8366ZM92.0447 17.7566L98.3147 4.8366L96.5154 3.9634L90.2454 16.8834L92.0447 17.7566ZM97.415 5.4H104.635V3.4H97.415V5.4ZM103.746 3.94246L93.6759 23.5125L95.4542 24.4275L105.524 4.85754L103.746 3.94246ZM93.565 23.97V31H95.565V23.97H93.565ZM94.565 30H87.725V32H94.565V30ZM88.725 31V23.97H86.725V31H88.725ZM88.6142 23.5125L78.5442 3.94246L76.7659 4.85754L86.8359 24.4275L88.6142 23.5125ZM106.152 4.4V3.4H105.152V4.4H106.152ZM126.824 6.11L126.125 6.82488L126.133 6.83264L126.824 6.11ZM127.584 14.964L128.402 15.539L128.409 15.5287L127.584 14.964ZM125.152 16.94L124.785 16.0098L121.984 17.1156L124.89 17.905L125.152 16.94ZM129.332 21.044L130.284 20.737L130.28 20.7245L129.332 21.044ZM127.964 29.252L127.257 28.5449L127.964 29.252ZM106.152 31H105.152V32H106.152V31ZM112.992 20.36V19.36H111.992V20.36H112.992ZM112.992 25.68H111.992V26.68H112.992V25.68ZM112.992 9.72V8.72H111.992V9.72H112.992ZM112.992 15.04H111.992V16.04H112.992V15.04ZM106.152 5.4H121.352V3.4H106.152V5.4ZM121.352 5.4C123.707 5.4 125.224 5.94367 126.125 6.82483L127.523 5.39516C126.093 3.99633 123.962 3.4 121.352 3.4V5.4ZM126.133 6.83264C127.029 7.68982 127.572 9.08872 127.572 11.24H129.572C129.572 8.78062 128.95 6.75951 127.515 5.38736L126.133 6.83264ZM127.572 11.24C127.572 12.619 127.274 13.6468 126.759 14.3993L128.409 15.5287C129.212 14.3559 129.572 12.901 129.572 11.24H127.572ZM126.766 14.3891C126.207 15.1842 125.547 15.7092 124.785 16.0098L125.519 17.8702C126.683 17.4108 127.644 16.6185 128.402 15.5389L126.766 14.3891ZM124.89 17.905C126.59 18.3669 127.746 19.4704 128.384 21.3635L130.28 20.7245C129.449 18.2602 127.818 16.6278 125.414 15.975L124.89 17.905ZM128.38 21.351C128.595 22.0153 128.712 22.8199 128.712 23.78H130.712C130.712 22.6628 130.576 21.6433 130.284 20.737L128.38 21.351ZM128.712 23.78C128.712 26.13 128.158 27.6436 127.257 28.5449L128.671 29.9591C130.101 28.5297 130.712 26.3954 130.712 23.78H128.712ZM127.257 28.5449C126.356 29.4462 124.842 30 122.492 30V32C125.107 32 127.242 31.3885 128.671 29.9591L127.257 28.5449ZM122.492 30H106.152V32H122.492V30ZM107.152 31V4.4H105.152V31H107.152ZM123.872 22.64C123.872 21.7259 123.643 20.8566 123.009 20.2229C122.375 19.5892 121.506 19.36 120.592 19.36V21.36C121.198 21.36 121.469 21.5108 121.595 21.6371C121.721 21.7634 121.872 22.0341 121.872 22.64H123.872ZM120.592 19.36H112.992V21.36H120.592V19.36ZM111.992 20.36V25.68H113.992V20.36H111.992ZM112.992 26.68H120.592V24.68H112.992V26.68ZM120.592 26.68C121.506 26.68 122.375 26.4508 123.009 25.8171C123.643 25.1834 123.872 24.3141 123.872 23.4H121.872C121.872 24.0059 121.721 24.2766 121.595 24.4029C121.469 24.5292 121.198 24.68 120.592 24.68V26.68ZM123.872 23.4V22.64H121.872V23.4H123.872ZM122.732 12C122.732 11.0859 122.503 10.2166 121.869 9.58289C121.235 8.94921 120.366 8.72 119.452 8.72V10.72C120.058 10.72 120.329 10.8708 120.455 10.9971C120.581 11.1234 120.732 11.3941 120.732 12H122.732ZM119.452 8.72H112.992V10.72H119.452V8.72ZM111.992 9.72V15.04H113.992V9.72H111.992ZM112.992 16.04H119.452V14.04H112.992V16.04ZM119.452 16.04C120.366 16.04 121.235 15.8108 121.869 15.1771C122.503 14.5434 122.732 13.6741 122.732 12.76H120.732C120.732 13.3659 120.581 13.6366 120.455 13.7629C120.329 13.8892 120.058 14.04 119.452 14.04V16.04ZM122.732 12.76V12H120.732V12.76H122.732ZM133.131 4.4V3.4H132.131V4.4H133.131ZM154.867 6.224L154.152 6.92362L154.159 6.93115L154.167 6.93851L154.867 6.224ZM155.627 20.322L154.772 19.8021L154.768 19.8089L154.764 19.8158L155.627 20.322ZM152.321 22.64L152.078 21.6699L150.801 21.9892L151.451 23.134L152.321 22.64ZM157.071 31V32H158.789L157.94 30.506L157.071 31ZM149.661 31L148.783 31.4803L149.068 32H149.661V31ZM145.291 23.02L146.168 22.5397L145.883 22.02H145.291V23.02ZM139.971 23.02V22.02H138.971V23.02H139.971ZM139.971 31V32H140.971V31H139.971ZM133.131 31H132.131V32H133.131V31ZM139.971 9.72V8.72H138.971V9.72H139.971ZM139.971 17.7H138.971V18.7H139.971V17.7ZM133.131 5.4H149.091V3.4H133.131V5.4ZM149.091 5.4C151.629 5.4 153.232 5.98434 154.152 6.92362L155.581 5.52438C154.119 4.03165 151.872 3.4 149.091 3.4V5.4ZM154.167 6.93851C155.106 7.85822 155.691 9.46129 155.691 12H157.691C157.691 9.21871 157.059 6.97111 155.566 5.50949L154.167 6.93851ZM155.691 12V15.42H157.691V12H155.691ZM155.691 15.42C155.691 17.4306 155.348 18.8564 154.772 19.8021L156.481 20.8419C157.324 19.4569 157.691 17.6147 157.691 15.42H155.691ZM154.764 19.8158C154.238 20.7123 153.383 21.3437 152.078 21.6699L152.563 23.6101C154.299 23.1763 155.647 22.2624 156.489 20.8282L154.764 19.8158ZM151.451 23.134L156.201 31.494L157.94 30.506L153.19 22.146L151.451 23.134ZM157.071 30H149.661V32H157.071V30ZM150.538 30.5197L146.168 22.5397L144.413 23.5003L148.783 31.4803L150.538 30.5197ZM145.291 22.02H139.971V24.02H145.291V22.02ZM138.971 23.02V31H140.971V23.02H138.971ZM139.971 30H133.131V32H139.971V30ZM134.131 31V4.4H132.131V31H134.131ZM150.851 12C150.851 11.0859 150.621 10.2166 149.988 9.58289C149.354 8.94921 148.485 8.72 147.571 8.72V10.72C148.176 10.72 148.447 10.8708 148.573 10.9971C148.7 11.1234 148.851 11.3941 148.851 12H150.851ZM147.571 8.72H139.971V10.72H147.571V8.72ZM138.971 9.72V17.7H140.971V9.72H138.971ZM139.971 18.7H147.571V16.7H139.971V18.7ZM147.571 18.7C148.485 18.7 149.354 18.4708 149.988 17.8371C150.621 17.2034 150.851 16.3341 150.851 15.42H148.851C148.851 16.0259 148.7 16.2966 148.573 16.4229C148.447 16.5492 148.176 16.7 147.571 16.7V18.7ZM150.851 15.42V12H148.851V15.42H150.851ZM173.02 31V32H174.02V31H173.02ZM159.34 31H158.34V32H159.34V31ZM159.34 25.68V24.68H158.34V25.68H159.34ZM162.76 25.68V26.68H163.76V25.68H162.76ZM162.76 9.72H163.76V8.72H162.76V9.72ZM159.34 9.72H158.34V10.72H159.34V9.72ZM159.34 4.4V3.4H158.34V4.4H159.34ZM173.02 4.4H174.02V3.4H173.02V4.4ZM173.02 9.72V10.72H174.02V9.72H173.02ZM169.6 9.72V8.72H168.6V9.72H169.6ZM169.6 25.68H168.6V26.68H169.6V25.68ZM173.02 25.68H174.02V24.68H173.02V25.68ZM173.02 30H159.34V32H173.02V30ZM160.34 31V25.68H158.34V31H160.34ZM159.34 26.68H162.76V24.68H159.34V26.68ZM163.76 25.68V9.72H161.76V25.68H163.76ZM162.76 8.72H159.34V10.72H162.76V8.72ZM160.34 9.72V4.4H158.34V9.72H160.34ZM159.34 5.4H173.02V3.4H159.34V5.4ZM172.02 4.4V9.72H174.02V4.4H172.02ZM173.02 8.72H169.6V10.72H173.02V8.72ZM168.6 9.72V25.68H170.6V9.72H168.6ZM169.6 26.68H173.02V24.68H169.6V26.68ZM172.02 25.68V31H174.02V25.68H172.02ZM196.957 30.62L197.047 31.616L197.957 31.5343V30.62H196.957ZM177.425 29.632L178.132 28.9249L178.132 28.9249L177.425 29.632ZM177.463 6.224L178.17 6.93111L178.17 6.93111L177.463 6.224ZM196.957 4.4H197.957V3.4H196.957V4.4ZM196.957 9.72V10.72H197.957V9.72H196.957ZM183.011 25.566L182.278 26.2465L182.304 26.2736L182.331 26.2988L183.011 25.566ZM186.089 26.06V27.06H186.109L186.129 27.0592L186.089 26.06ZM188.065 25.984L188.102 26.9833L188.102 26.9833L188.065 25.984ZM190.117 25.908L190.082 24.9086L190.08 24.9087L190.117 25.908ZM192.815 25.756L192.747 24.7583L192.746 24.7584L192.815 25.756ZM196.957 25.49H197.957V24.4266L196.896 24.4919L196.957 25.49ZM196.868 29.624C191.235 30.1292 186.58 30.38 182.897 30.38V32.38C186.662 32.38 191.381 32.1241 197.047 31.616L196.868 29.624ZM182.897 30.38C180.547 30.38 179.034 29.8262 178.132 28.9249L176.718 30.3391C178.148 31.7685 180.282 32.38 182.897 32.38V30.38ZM178.132 28.9249C177.231 28.0236 176.677 26.51 176.677 24.16H174.677C174.677 26.7754 175.289 28.9097 176.718 30.3391L178.132 28.9249ZM176.677 24.16V12H174.677V24.16H176.677ZM176.677 12C176.677 9.45646 177.251 7.85026 178.17 6.93111L176.756 5.51689C175.294 6.97907 174.677 9.22354 174.677 12H176.677ZM178.17 6.93111C179.118 5.98335 180.741 5.4 183.277 5.4V3.4C180.494 3.4 178.24 4.03264 176.756 5.51689L178.17 6.93111ZM183.277 5.4H196.957V3.4H183.277V5.4ZM195.957 4.4V9.72H197.957V4.4H195.957ZM196.957 8.72H184.797V10.72H196.957V8.72ZM184.797 8.72C183.883 8.72 183.014 8.94921 182.38 9.58289C181.746 10.2166 181.517 11.0859 181.517 12H183.517C183.517 11.3941 183.668 11.1234 183.794 10.9971C183.921 10.8708 184.191 10.72 184.797 10.72V8.72ZM181.517 12V24.16H183.517V12H181.517ZM181.517 24.16C181.517 24.9407 181.744 25.6705 182.278 26.2465L183.744 24.8855C183.62 24.7522 183.517 24.5447 183.517 24.16H181.517ZM182.331 26.2988C182.889 26.8175 183.584 27.06 184.341 27.06V25.06C184.034 25.06 183.842 24.9731 183.692 24.8332L182.331 26.2988ZM184.341 27.06C184.342 27.06 184.343 27.06 184.344 27.06C184.345 27.06 184.346 27.06 184.347 27.06C184.349 27.06 184.35 27.06 184.351 27.06C184.352 27.06 184.353 27.06 184.354 27.06C184.355 27.06 184.356 27.06 184.357 27.06C184.358 27.06 184.359 27.06 184.36 27.06C184.361 27.06 184.362 27.06 184.363 27.06C184.364 27.06 184.365 27.06 184.366 27.06C184.367 27.06 184.368 27.06 184.369 27.06C184.37 27.06 184.371 27.06 184.372 27.06C184.373 27.06 184.375 27.06 184.376 27.06C184.377 27.06 184.378 27.06 184.379 27.06C184.38 27.06 184.381 27.06 184.382 27.06C184.383 27.06 184.384 27.06 184.385 27.06C184.386 27.06 184.387 27.06 184.388 27.06C184.389 27.06 184.39 27.06 184.391 27.06C184.392 27.06 184.393 27.06 184.394 27.06C184.395 27.06 184.396 27.06 184.398 27.06C184.399 27.06 184.4 27.06 184.401 27.06C184.402 27.06 184.403 27.06 184.404 27.06C184.405 27.06 184.406 27.06 184.407 27.06C184.408 27.06 184.409 27.06 184.41 27.06C184.411 27.06 184.412 27.06 184.413 27.06C184.414 27.06 184.415 27.06 184.416 27.06C184.417 27.06 184.418 27.06 184.42 27.06C184.421 27.06 184.422 27.06 184.423 27.06C184.424 27.06 184.425 27.06 184.426 27.06C184.427 27.06 184.428 27.06 184.429 27.06C184.43 27.06 184.431 27.06 184.432 27.06C184.433 27.06 184.434 27.06 184.435 27.06C184.436 27.06 184.437 27.06 184.438 27.06C184.439 27.06 184.441 27.06 184.442 27.06C184.443 27.06 184.444 27.06 184.445 27.06C184.446 27.06 184.447 27.06 184.448 27.06C184.449 27.06 184.45 27.06 184.451 27.06C184.452 27.06 184.453 27.06 184.454 27.06C184.455 27.06 184.456 27.06 184.457 27.06C184.458 27.06 184.459 27.06 184.461 27.06C184.462 27.06 184.463 27.06 184.464 27.06C184.465 27.06 184.466 27.06 184.467 27.06C184.468 27.06 184.469 27.06 184.47 27.06C184.471 27.06 184.472 27.06 184.473 27.06C184.474 27.06 184.475 27.06 184.476 27.06C184.477 27.06 184.478 27.06 184.48 27.06C184.481 27.06 184.482 27.06 184.483 27.06C184.484 27.06 184.485 27.06 184.486 27.06C184.487 27.06 184.488 27.06 184.489 27.06C184.49 27.06 184.491 27.06 184.492 27.06C184.493 27.06 184.494 27.06 184.495 27.06C184.496 27.06 184.497 27.06 184.499 27.06C184.5 27.06 184.501 27.06 184.502 27.06C184.503 27.06 184.504 27.06 184.505 27.06C184.506 27.06 184.507 27.06 184.508 27.06C184.509 27.06 184.51 27.06 184.511 27.06C184.512 27.06 184.513 27.06 184.514 27.06C184.515 27.06 184.517 27.06 184.518 27.06C184.519 27.06 184.52 27.06 184.521 27.06C184.522 27.06 184.523 27.06 184.524 27.06C184.525 27.06 184.526 27.06 184.527 27.06C184.528 27.06 184.529 27.06 184.53 27.06C184.531 27.06 184.532 27.06 184.534 27.06C184.535 27.06 184.536 27.06 184.537 27.06C184.538 27.06 184.539 27.06 184.54 27.06C184.541 27.06 184.542 27.06 184.543 27.06C184.544 27.06 184.545 27.06 184.546 27.06C184.547 27.06 184.548 27.06 184.549 27.06C184.551 27.06 184.552 27.06 184.553 27.06C184.554 27.06 184.555 27.06 184.556 27.06C184.557 27.06 184.558 27.06 184.559 27.06C184.56 27.06 184.561 27.06 184.562 27.06C184.563 27.06 184.564 27.06 184.565 27.06C184.567 27.06 184.568 27.06 184.569 27.06C184.57 27.06 184.571 27.06 184.572 27.06C184.573 27.06 184.574 27.06 184.575 27.06C184.576 27.06 184.577 27.06 184.578 27.06C184.579 27.06 184.58 27.06 184.581 27.06C184.583 27.06 184.584 27.06 184.585 27.06C184.586 27.06 184.587 27.06 184.588 27.06C184.589 27.06 184.59 27.06 184.591 27.06C184.592 27.06 184.593 27.06 184.594 27.06C184.595 27.06 184.596 27.06 184.598 27.06C184.599 27.06 184.6 27.06 184.601 27.06C184.602 27.06 184.603 27.06 184.604 27.06C184.605 27.06 184.606 27.06 184.607 27.06C184.608 27.06 184.609 27.06 184.61 27.06C184.611 27.06 184.613 27.06 184.614 27.06C184.615 27.06 184.616 27.06 184.617 27.06C184.618 27.06 184.619 27.06 184.62 27.06C184.621 27.06 184.622 27.06 184.623 27.06C184.624 27.06 184.625 27.06 184.626 27.06C184.628 27.06 184.629 27.06 184.63 27.06C184.631 27.06 184.632 27.06 184.633 27.06C184.634 27.06 184.635 27.06 184.636 27.06C184.637 27.06 184.638 27.06 184.639 27.06C184.64 27.06 184.642 27.06 184.643 27.06C184.644 27.06 184.645 27.06 184.646 27.06C184.647 27.06 184.648 27.06 184.649 27.06C184.65 27.06 184.651 27.06 184.652 27.06C184.653 27.06 184.654 27.06 184.656 27.06C184.657 27.06 184.658 27.06 184.659 27.06C184.66 27.06 184.661 27.06 184.662 27.06C184.663 27.06 184.664 27.06 184.665 27.06C184.666 27.06 184.667 27.06 184.668 27.06C184.67 27.06 184.671 27.06 184.672 27.06C184.673 27.06 184.674 27.06 184.675 27.06C184.676 27.06 184.677 27.06 184.678 27.06C184.679 27.06 184.68 27.06 184.681 27.06C184.682 27.06 184.684 27.06 184.685 27.06C184.686 27.06 184.687 27.06 184.688 27.06C184.689 27.06 184.69 27.06 184.691 27.06C184.692 27.06 184.693 27.06 184.694 27.06C184.695 27.06 184.697 27.06 184.698 27.06C184.699 27.06 184.7 27.06 184.701 27.06C184.702 27.06 184.703 27.06 184.704 27.06C184.705 27.06 184.706 27.06 184.707 27.06C184.708 27.06 184.71 27.06 184.711 27.06C184.712 27.06 184.713 27.06 184.714 27.06C184.715 27.06 184.716 27.06 184.717 27.06C184.718 27.06 184.719 27.06 184.72 27.06C184.721 27.06 184.723 27.06 184.724 27.06C184.725 27.06 184.726 27.06 184.727 27.06C184.728 27.06 184.729 27.06 184.73 27.06C184.731 27.06 184.732 27.06 184.733 27.06C184.734 27.06 184.736 27.06 184.737 27.06C184.738 27.06 184.739 27.06 184.74 27.06C184.741 27.06 184.742 27.06 184.743 27.06C184.744 27.06 184.745 27.06 184.746 27.06C184.748 27.06 184.749 27.06 184.75 27.06C184.751 27.06 184.752 27.06 184.753 27.06C184.754 27.06 184.755 27.06 184.756 27.06C184.757 27.06 184.758 27.06 184.76 27.06C184.761 27.06 184.762 27.06 184.763 27.06C184.764 27.06 184.765 27.06 184.766 27.06C184.767 27.06 184.768 27.06 184.769 27.06C184.77 27.06 184.772 27.06 184.773 27.06C184.774 27.06 184.775 27.06 184.776 27.06C184.777 27.06 184.778 27.06 184.779 27.06C184.78 27.06 184.781 27.06 184.782 27.06C184.784 27.06 184.785 27.06 184.786 27.06C184.787 27.06 184.788 27.06 184.789 27.06C184.79 27.06 184.791 27.06 184.792 27.06C184.793 27.06 184.794 27.06 184.796 27.06C184.797 27.06 184.798 27.06 184.799 27.06C184.8 27.06 184.801 27.06 184.802 27.06C184.803 27.06 184.804 27.06 184.805 27.06C184.807 27.06 184.808 27.06 184.809 27.06C184.81 27.06 184.811 27.06 184.812 27.06C184.813 27.06 184.814 27.06 184.815 27.06C184.816 27.06 184.817 27.06 184.819 27.06C184.82 27.06 184.821 27.06 184.822 27.06C184.823 27.06 184.824 27.06 184.825 27.06C184.826 27.06 184.827 27.06 184.828 27.06C184.83 27.06 184.831 27.06 184.832 27.06C184.833 27.06 184.834 27.06 184.835 27.06C184.836 27.06 184.837 27.06 184.838 27.06C184.839 27.06 184.841 27.06 184.842 27.06C184.843 27.06 184.844 27.06 184.845 27.06C184.846 27.06 184.847 27.06 184.848 27.06C184.849 27.06 184.85 27.06 184.852 27.06C184.853 27.06 184.854 27.06 184.855 27.06C184.856 27.06 184.857 27.06 184.858 27.06C184.859 27.06 184.86 27.06 184.861 27.06C184.863 27.06 184.864 27.06 184.865 27.06C184.866 27.06 184.867 27.06 184.868 27.06C184.869 27.06 184.87 27.06 184.871 27.06C184.872 27.06 184.874 27.06 184.875 27.06C184.876 27.06 184.877 27.06 184.878 27.06C184.879 27.06 184.88 27.06 184.881 27.06C184.882 27.06 184.883 27.06 184.885 27.06C184.886 27.06 184.887 27.06 184.888 27.06C184.889 27.06 184.89 27.06 184.891 27.06C184.892 27.06 184.893 27.06 184.895 27.06C184.896 27.06 184.897 27.06 184.898 27.06C184.899 27.06 184.9 27.06 184.901 27.06C184.902 27.06 184.903 27.06 184.904 27.06C184.906 27.06 184.907 27.06 184.908 27.06C184.909 27.06 184.91 27.06 184.911 27.06C184.912 27.06 184.913 27.06 184.914 27.06C184.916 27.06 184.917 27.06 184.918 27.06C184.919 27.06 184.92 27.06 184.921 27.06C184.922 27.06 184.923 27.06 184.924 27.06C184.926 27.06 184.927 27.06 184.928 27.06C184.929 27.06 184.93 27.06 184.931 27.06C184.932 27.06 184.933 27.06 184.934 27.06C184.936 27.06 184.937 27.06 184.938 27.06C184.939 27.06 184.94 27.06 184.941 27.06C184.942 27.06 184.943 27.06 184.944 27.06C184.946 27.06 184.947 27.06 184.948 27.06C184.949 27.06 184.95 27.06 184.951 27.06C184.952 27.06 184.953 27.06 184.954 27.06C184.956 27.06 184.957 27.06 184.958 27.06C184.959 27.06 184.96 27.06 184.961 27.06C184.962 27.06 184.963 27.06 184.964 27.06C184.966 27.06 184.967 27.06 184.968 27.06C184.969 27.06 184.97 27.06 184.971 27.06C184.972 27.06 184.973 27.06 184.974 27.06C184.976 27.06 184.977 27.06 184.978 27.06C184.979 27.06 184.98 27.06 184.981 27.06C184.982 27.06 184.983 27.06 184.985 27.06C184.986 27.06 184.987 27.06 184.988 27.06C184.989 27.06 184.99 27.06 184.991 27.06C184.992 27.06 184.993 27.06 184.995 27.06C184.996 27.06 184.997 27.06 184.998 27.06C184.999 27.06 185 27.06 185.001 27.06C185.002 27.06 185.003 27.06 185.005 27.06C185.006 27.06 185.007 27.06 185.008 27.06C185.009 27.06 185.01 27.06 185.011 27.06C185.012 27.06 185.014 27.06 185.015 27.06C185.016 27.06 185.017 27.06 185.018 27.06C185.019 27.06 185.02 27.06 185.021 27.06C185.023 27.06 185.024 27.06 185.025 27.06C185.026 27.06 185.027 27.06 185.028 27.06C185.029 27.06 185.03 27.06 185.031 27.06C185.033 27.06 185.034 27.06 185.035 27.06C185.036 27.06 185.037 27.06 185.038 27.06C185.039 27.06 185.04 27.06 185.042 27.06C185.043 27.06 185.044 27.06 185.045 27.06C185.046 27.06 185.047 27.06 185.048 27.06C185.049 27.06 185.051 27.06 185.052 27.06C185.053 27.06 185.054 27.06 185.055 27.06C185.056 27.06 185.057 27.06 185.058 27.06C185.06 27.06 185.061 27.06 185.062 27.06C185.063 27.06 185.064 27.06 185.065 27.06C185.066 27.06 185.067 27.06 185.069 27.06C185.07 27.06 185.071 27.06 185.072 27.06C185.073 27.06 185.074 27.06 185.075 27.06C185.076 27.06 185.078 27.06 185.079 27.06C185.08 27.06 185.081 27.06 185.082 27.06C185.083 27.06 185.084 27.06 185.085 27.06C185.087 27.06 185.088 27.06 185.089 27.06C185.09 27.06 185.091 27.06 185.092 27.06C185.093 27.06 185.094 27.06 185.096 27.06C185.097 27.06 185.098 27.06 185.099 27.06C185.1 27.06 185.101 27.06 185.102 27.06C185.104 27.06 185.105 27.06 185.106 27.06C185.107 27.06 185.108 27.06 185.109 27.06C185.11 27.06 185.111 27.06 185.113 27.06C185.114 27.06 185.115 27.06 185.116 27.06C185.117 27.06 185.118 27.06 185.119 27.06C185.12 27.06 185.122 27.06 185.123 27.06C185.124 27.06 185.125 27.06 185.126 27.06C185.127 27.06 185.128 27.06 185.13 27.06C185.131 27.06 185.132 27.06 185.133 27.06C185.134 27.06 185.135 27.06 185.136 27.06C185.137 27.06 185.139 27.06 185.14 27.06C185.141 27.06 185.142 27.06 185.143 27.06C185.144 27.06 185.145 27.06 185.147 27.06C185.148 27.06 185.149 27.06 185.15 27.06C185.151 27.06 185.152 27.06 185.153 27.06C185.154 27.06 185.156 27.06 185.157 27.06C185.158 27.06 185.159 27.06 185.16 27.06C185.161 27.06 185.162 27.06 185.164 27.06C185.165 27.06 185.166 27.06 185.167 27.06C185.168 27.06 185.169 27.06 185.17 27.06C185.172 27.06 185.173 27.06 185.174 27.06C185.175 27.06 185.176 27.06 185.177 27.06C185.178 27.06 185.18 27.06 185.181 27.06C185.182 27.06 185.183 27.06 185.184 27.06C185.185 27.06 185.186 27.06 185.187 27.06C185.189 27.06 185.19 27.06 185.191 27.06C185.192 27.06 185.193 27.06 185.194 27.06C185.195 27.06 185.197 27.06 185.198 27.06C185.199 27.06 185.2 27.06 185.201 27.06C185.202 27.06 185.203 27.06 185.205 27.06C185.206 27.06 185.207 27.06 185.208 27.06C185.209 27.06 185.21 27.06 185.211 27.06C185.213 27.06 185.214 27.06 185.215 27.06C185.216 27.06 185.217 27.06 185.218 27.06C185.219 27.06 185.221 27.06 185.222 27.06C185.223 27.06 185.224 27.06 185.225 27.06C185.226 27.06 185.227 27.06 185.229 27.06C185.23 27.06 185.231 27.06 185.232 27.06C185.233 27.06 185.234 27.06 185.235 27.06C185.237 27.06 185.238 27.06 185.239 27.06C185.24 27.06 185.241 27.06 185.242 27.06C185.243 27.06 185.245 27.06 185.246 27.06C185.247 27.06 185.248 27.06 185.249 27.06C185.25 27.06 185.251 27.06 185.253 27.06C185.254 27.06 185.255 27.06 185.256 27.06C185.257 27.06 185.258 27.06 185.259 27.06C185.261 27.06 185.262 27.06 185.263 27.06C185.264 27.06 185.265 27.06 185.266 27.06C185.268 27.06 185.269 27.06 185.27 27.06C185.271 27.06 185.272 27.06 185.273 27.06C185.274 27.06 185.276 27.06 185.277 27.06C185.278 27.06 185.279 27.06 185.28 27.06C185.281 27.06 185.282 27.06 185.284 27.06C185.285 27.06 185.286 27.06 185.287 27.06C185.288 27.06 185.289 27.06 185.291 27.06C185.292 27.06 185.293 27.06 185.294 27.06C185.295 27.06 185.296 27.06 185.297 27.06C185.299 27.06 185.3 27.06 185.301 27.06C185.302 27.06 185.303 27.06 185.304 27.06C185.305 27.06 185.307 27.06 185.308 27.06C185.309 27.06 185.31 27.06 185.311 27.06C185.312 27.06 185.314 27.06 185.315 27.06C185.316 27.06 185.317 27.06 185.318 27.06C185.319 27.06 185.32 27.06 185.322 27.06C185.323 27.06 185.324 27.06 185.325 27.06C185.326 27.06 185.327 27.06 185.329 27.06C185.33 27.06 185.331 27.06 185.332 27.06C185.333 27.06 185.334 27.06 185.336 27.06C185.337 27.06 185.338 27.06 185.339 27.06C185.34 27.06 185.341 27.06 185.342 27.06C185.344 27.06 185.345 27.06 185.346 27.06C185.347 27.06 185.348 27.06 185.349 27.06C185.351 27.06 185.352 27.06 185.353 27.06C185.354 27.06 185.355 27.06 185.356 27.06C185.357 27.06 185.359 27.06 185.36 27.06C185.361 27.06 185.362 27.06 185.363 27.06C185.364 27.06 185.366 27.06 185.367 27.06C185.368 27.06 185.369 27.06 185.37 27.06C185.371 27.06 185.373 27.06 185.374 27.06C185.375 27.06 185.376 27.06 185.377 27.06C185.378 27.06 185.38 27.06 185.381 27.06C185.382 27.06 185.383 27.06 185.384 27.06C185.385 27.06 185.386 27.06 185.388 27.06C185.389 27.06 185.39 27.06 185.391 27.06C185.392 27.06 185.393 27.06 185.395 27.06C185.396 27.06 185.397 27.06 185.398 27.06C185.399 27.06 185.4 27.06 185.402 27.06C185.403 27.06 185.404 27.06 185.405 27.06C185.406 27.06 185.407 27.06 185.409 27.06C185.41 27.06 185.411 27.06 185.412 27.06C185.413 27.06 185.414 27.06 185.416 27.06C185.417 27.06 185.418 27.06 185.419 27.06C185.42 27.06 185.421 27.06 185.423 27.06C185.424 27.06 185.425 27.06 185.426 27.06C185.427 27.06 185.428 27.06 185.43 27.06C185.431 27.06 185.432 27.06 185.433 27.06C185.434 27.06 185.435 27.06 185.437 27.06C185.438 27.06 185.439 27.06 185.44 27.06C185.441 27.06 185.442 27.06 185.444 27.06C185.445 27.06 185.446 27.06 185.447 27.06C185.448 27.06 185.449 27.06 185.451 27.06C185.452 27.06 185.453 27.06 185.454 27.06C185.455 27.06 185.456 27.06 185.458 27.06C185.459 27.06 185.46 27.06 185.461 27.06C185.462 27.06 185.463 27.06 185.465 27.06C185.466 27.06 185.467 27.06 185.468 27.06C185.469 27.06 185.47 27.06 185.472 27.06C185.473 27.06 185.474 27.06 185.475 27.06C185.476 27.06 185.477 27.06 185.479 27.06C185.48 27.06 185.481 27.06 185.482 27.06C185.483 27.06 185.484 27.06 185.486 27.06C185.487 27.06 185.488 27.06 185.489 27.06C185.49 27.06 185.492 27.06 185.493 27.06C185.494 27.06 185.495 27.06 185.496 27.06C185.497 27.06 185.499 27.06 185.5 27.06C185.501 27.06 185.502 27.06 185.503 27.06C185.504 27.06 185.506 27.06 185.507 27.06C185.508 27.06 185.509 27.06 185.51 27.06C185.511 27.06 185.513 27.06 185.514 27.06C185.515 27.06 185.516 27.06 185.517 27.06C185.519 27.06 185.52 27.06 185.521 27.06C185.522 27.06 185.523 27.06 185.524 27.06C185.526 27.06 185.527 27.06 185.528 27.06C185.529 27.06 185.53 27.06 185.531 27.06C185.533 27.06 185.534 27.06 185.535 27.06C185.536 27.06 185.537 27.06 185.539 27.06C185.54 27.06 185.541 27.06 185.542 27.06C185.543 27.06 185.544 27.06 185.546 27.06C185.547 27.06 185.548 27.06 185.549 27.06C185.55 27.06 185.552 27.06 185.553 27.06C185.554 27.06 185.555 27.06 185.556 27.06C185.557 27.06 185.559 27.06 185.56 27.06C185.561 27.06 185.562 27.06 185.563 27.06C185.565 27.06 185.566 27.06 185.567 27.06C185.568 27.06 185.569 27.06 185.57 27.06C185.572 27.06 185.573 27.06 185.574 27.06C185.575 27.06 185.576 27.06 185.578 27.06C185.579 27.06 185.58 27.06 185.581 27.06C185.582 27.06 185.583 27.06 185.585 27.06C185.586 27.06 185.587 27.06 185.588 27.06C185.589 27.06 185.591 27.06 185.592 27.06C185.593 27.06 185.594 27.06 185.595 27.06C185.596 27.06 185.598 27.06 185.599 27.06C185.6 27.06 185.601 27.06 185.602 27.06C185.604 27.06 185.605 27.06 185.606 27.06C185.607 27.06 185.608 27.06 185.609 27.06C185.611 27.06 185.612 27.06 185.613 27.06C185.614 27.06 185.615 27.06 185.617 27.06C185.618 27.06 185.619 27.06 185.62 27.06C185.621 27.06 185.623 27.06 185.624 27.06C185.625 27.06 185.626 27.06 185.627 27.06C185.628 27.06 185.63 27.06 185.631 27.06C185.632 27.06 185.633 27.06 185.634 27.06C185.636 27.06 185.637 27.06 185.638 27.06C185.639 27.06 185.64 27.06 185.642 27.06C185.643 27.06 185.644 27.06 185.645 27.06C185.646 27.06 185.648 27.06 185.649 27.06C185.65 27.06 185.651 27.06 185.652 27.06C185.653 27.06 185.655 27.06 185.656 27.06C185.657 27.06 185.658 27.06 185.659 27.06C185.661 27.06 185.662 27.06 185.663 27.06C185.664 27.06 185.665 27.06 185.667 27.06C185.668 27.06 185.669 27.06 185.67 27.06C185.671 27.06 185.673 27.06 185.674 27.06C185.675 27.06 185.676 27.06 185.677 27.06C185.678 27.06 185.68 27.06 185.681 27.06C185.682 27.06 185.683 27.06 185.684 27.06C185.686 27.06 185.687 27.06 185.688 27.06C185.689 27.06 185.69 27.06 185.692 27.06C185.693 27.06 185.694 27.06 185.695 27.06C185.696 27.06 185.698 27.06 185.699 27.06C185.7 27.06 185.701 27.06 185.702 27.06C185.704 27.06 185.705 27.06 185.706 27.06C185.707 27.06 185.708 27.06 185.71 27.06C185.711 27.06 185.712 27.06 185.713 27.06C185.714 27.06 185.716 27.06 185.717 27.06C185.718 27.06 185.719 27.06 185.72 27.06C185.722 27.06 185.723 27.06 185.724 27.06C185.725 27.06 185.726 27.06 185.728 27.06C185.729 27.06 185.73 27.06 185.731 27.06C185.732 27.06 185.734 27.06 185.735 27.06C185.736 27.06 185.737 27.06 185.738 27.06C185.74 27.06 185.741 27.06 185.742 27.06C185.743 27.06 185.744 27.06 185.746 27.06C185.747 27.06 185.748 27.06 185.749 27.06C185.75 27.06 185.752 27.06 185.753 27.06C185.754 27.06 185.755 27.06 185.756 27.06C185.758 27.06 185.759 27.06 185.76 27.06C185.761 27.06 185.762 27.06 185.764 27.06C185.765 27.06 185.766 27.06 185.767 27.06C185.768 27.06 185.77 27.06 185.771 27.06C185.772 27.06 185.773 27.06 185.774 27.06C185.776 27.06 185.777 27.06 185.778 27.06C185.779 27.06 185.78 27.06 185.782 27.06C185.783 27.06 185.784 27.06 185.785 27.06C185.786 27.06 185.788 27.06 185.789 27.06C185.79 27.06 185.791 27.06 185.792 27.06C185.794 27.06 185.795 27.06 185.796 27.06C185.797 27.06 185.798 27.06 185.8 27.06C185.801 27.06 185.802 27.06 185.803 27.06C185.805 27.06 185.806 27.06 185.807 27.06C185.808 27.06 185.809 27.06 185.811 27.06C185.812 27.06 185.813 27.06 185.814 27.06C185.815 27.06 185.817 27.06 185.818 27.06C185.819 27.06 185.82 27.06 185.821 27.06C185.823 27.06 185.824 27.06 185.825 27.06C185.826 27.06 185.827 27.06 185.829 27.06C185.83 27.06 185.831 27.06 185.832 27.06C185.834 27.06 185.835 27.06 185.836 27.06C185.837 27.06 185.838 27.06 185.84 27.06C185.841 27.06 185.842 27.06 185.843 27.06C185.844 27.06 185.846 27.06 185.847 27.06C185.848 27.06 185.849 27.06 185.85 27.06C185.852 27.06 185.853 27.06 185.854 27.06C185.855 27.06 185.857 27.06 185.858 27.06C185.859 27.06 185.86 27.06 185.861 27.06C185.863 27.06 185.864 27.06 185.865 27.06C185.866 27.06 185.867 27.06 185.869 27.06C185.87 27.06 185.871 27.06 185.872 27.06C185.874 27.06 185.875 27.06 185.876 27.06C185.877 27.06 185.878 27.06 185.88 27.06C185.881 27.06 185.882 27.06 185.883 27.06C185.884 27.06 185.886 27.06 185.887 27.06C185.888 27.06 185.889 27.06 185.891 27.06C185.892 27.06 185.893 27.06 185.894 27.06C185.895 27.06 185.897 27.06 185.898 27.06C185.899 27.06 185.9 27.06 185.901 27.06C185.903 27.06 185.904 27.06 185.905 27.06C185.906 27.06 185.908 27.06 185.909 27.06C185.91 27.06 185.911 27.06 185.912 27.06C185.914 27.06 185.915 27.06 185.916 27.06C185.917 27.06 185.919 27.06 185.92 27.06C185.921 27.06 185.922 27.06 185.923 27.06C185.925 27.06 185.926 27.06 185.927 27.06C185.928 27.06 185.93 27.06 185.931 27.06C185.932 27.06 185.933 27.06 185.934 27.06C185.936 27.06 185.937 27.06 185.938 27.06C185.939 27.06 185.94 27.06 185.942 27.06C185.943 27.06 185.944 27.06 185.945 27.06C185.947 27.06 185.948 27.06 185.949 27.06C185.95 27.06 185.951 27.06 185.953 27.06C185.954 27.06 185.955 27.06 185.956 27.06C185.958 27.06 185.959 27.06 185.96 27.06C185.961 27.06 185.963 27.06 185.964 27.06C185.965 27.06 185.966 27.06 185.967 27.06C185.969 27.06 185.97 27.06 185.971 27.06C185.972 27.06 185.974 27.06 185.975 27.06C185.976 27.06 185.977 27.06 185.978 27.06C185.98 27.06 185.981 27.06 185.982 27.06C185.983 27.06 185.985 27.06 185.986 27.06C185.987 27.06 185.988 27.06 185.989 27.06C185.991 27.06 185.992 27.06 185.993 27.06C185.994 27.06 185.996 27.06 185.997 27.06C185.998 27.06 185.999 27.06 186 27.06C186.002 27.06 186.003 27.06 186.004 27.06C186.005 27.06 186.007 27.06 186.008 27.06C186.009 27.06 186.01 27.06 186.012 27.06C186.013 27.06 186.014 27.06 186.015 27.06C186.016 27.06 186.018 27.06 186.019 27.06C186.02 27.06 186.021 27.06 186.023 27.06C186.024 27.06 186.025 27.06 186.026 27.06C186.028 27.06 186.029 27.06 186.03 27.06C186.031 27.06 186.032 27.06 186.034 27.06C186.035 27.06 186.036 27.06 186.037 27.06C186.039 27.06 186.04 27.06 186.041 27.06C186.042 27.06 186.044 27.06 186.045 27.06C186.046 27.06 186.047 27.06 186.048 27.06C186.05 27.06 186.051 27.06 186.052 27.06C186.053 27.06 186.055 27.06 186.056 27.06C186.057 27.06 186.058 27.06 186.06 27.06C186.061 27.06 186.062 27.06 186.063 27.06C186.065 27.06 186.066 27.06 186.067 27.06C186.068 27.06 186.069 27.06 186.071 27.06C186.072 27.06 186.073 27.06 186.074 27.06C186.076 27.06 186.077 27.06 186.078 27.06C186.079 27.06 186.081 27.06 186.082 27.06C186.083 27.06 186.084 27.06 186.086 27.06C186.087 27.06 186.088 27.06 186.089 27.06V25.06C186.088 25.06 186.087 25.06 186.086 25.06C186.084 25.06 186.083 25.06 186.082 25.06C186.081 25.06 186.079 25.06 186.078 25.06C186.077 25.06 186.076 25.06 186.074 25.06C186.073 25.06 186.072 25.06 186.071 25.06C186.069 25.06 186.068 25.06 186.067 25.06C186.066 25.06 186.065 25.06 186.063 25.06C186.062 25.06 186.061 25.06 186.06 25.06C186.058 25.06 186.057 25.06 186.056 25.06C186.055 25.06 186.053 25.06 186.052 25.06C186.051 25.06 186.05 25.06 186.048 25.06C186.047 25.06 186.046 25.06 186.045 25.06C186.044 25.06 186.042 25.06 186.041 25.06C186.04 25.06 186.039 25.06 186.037 25.06C186.036 25.06 186.035 25.06 186.034 25.06C186.032 25.06 186.031 25.06 186.03 25.06C186.029 25.06 186.028 25.06 186.026 25.06C186.025 25.06 186.024 25.06 186.023 25.06C186.021 25.06 186.02 25.06 186.019 25.06C186.018 25.06 186.016 25.06 186.015 25.06C186.014 25.06 186.013 25.06 186.012 25.06C186.01 25.06 186.009 25.06 186.008 25.06C186.007 25.06 186.005 25.06 186.004 25.06C186.003 25.06 186.002 25.06 186 25.06C185.999 25.06 185.998 25.06 185.997 25.06C185.996 25.06 185.994 25.06 185.993 25.06C185.992 25.06 185.991 25.06 185.989 25.06C185.988 25.06 185.987 25.06 185.986 25.06C185.985 25.06 185.983 25.06 185.982 25.06C185.981 25.06 185.98 25.06 185.978 25.06C185.977 25.06 185.976 25.06 185.975 25.06C185.974 25.06 185.972 25.06 185.971 25.06C185.97 25.06 185.969 25.06 185.967 25.06C185.966 25.06 185.965 25.06 185.964 25.06C185.963 25.06 185.961 25.06 185.96 25.06C185.959 25.06 185.958 25.06 185.956 25.06C185.955 25.06 185.954 25.06 185.953 25.06C185.951 25.06 185.95 25.06 185.949 25.06C185.948 25.06 185.947 25.06 185.945 25.06C185.944 25.06 185.943 25.06 185.942 25.06C185.94 25.06 185.939 25.06 185.938 25.06C185.937 25.06 185.936 25.06 185.934 25.06C185.933 25.06 185.932 25.06 185.931 25.06C185.93 25.06 185.928 25.06 185.927 25.06C185.926 25.06 185.925 25.06 185.923 25.06C185.922 25.06 185.921 25.06 185.92 25.06C185.919 25.06 185.917 25.06 185.916 25.06C185.915 25.06 185.914 25.06 185.912 25.06C185.911 25.06 185.91 25.06 185.909 25.06C185.908 25.06 185.906 25.06 185.905 25.06C185.904 25.06 185.903 25.06 185.901 25.06C185.9 25.06 185.899 25.06 185.898 25.06C185.897 25.06 185.895 25.06 185.894 25.06C185.893 25.06 185.892 25.06 185.891 25.06C185.889 25.06 185.888 25.06 185.887 25.06C185.886 25.06 185.884 25.06 185.883 25.06C185.882 25.06 185.881 25.06 185.88 25.06C185.878 25.06 185.877 25.06 185.876 25.06C185.875 25.06 185.874 25.06 185.872 25.06C185.871 25.06 185.87 25.06 185.869 25.06C185.867 25.06 185.866 25.06 185.865 25.06C185.864 25.06 185.863 25.06 185.861 25.06C185.86 25.06 185.859 25.06 185.858 25.06C185.857 25.06 185.855 25.06 185.854 25.06C185.853 25.06 185.852 25.06 185.85 25.06C185.849 25.06 185.848 25.06 185.847 25.06C185.846 25.06 185.844 25.06 185.843 25.06C185.842 25.06 185.841 25.06 185.84 25.06C185.838 25.06 185.837 25.06 185.836 25.06C185.835 25.06 185.834 25.06 185.832 25.06C185.831 25.06 185.83 25.06 185.829 25.06C185.827 25.06 185.826 25.06 185.825 25.06C185.824 25.06 185.823 25.06 185.821 25.06C185.82 25.06 185.819 25.06 185.818 25.06C185.817 25.06 185.815 25.06 185.814 25.06C185.813 25.06 185.812 25.06 185.811 25.06C185.809 25.06 185.808 25.06 185.807 25.06C185.806 25.06 185.805 25.06 185.803 25.06C185.802 25.06 185.801 25.06 185.8 25.06C185.798 25.06 185.797 25.06 185.796 25.06C185.795 25.06 185.794 25.06 185.792 25.06C185.791 25.06 185.79 25.06 185.789 25.06C185.788 25.06 185.786 25.06 185.785 25.06C185.784 25.06 185.783 25.06 185.782 25.06C185.78 25.06 185.779 25.06 185.778 25.06C185.777 25.06 185.776 25.06 185.774 25.06C185.773 25.06 185.772 25.06 185.771 25.06C185.77 25.06 185.768 25.06 185.767 25.06C185.766 25.06 185.765 25.06 185.764 25.06C185.762 25.06 185.761 25.06 185.76 25.06C185.759 25.06 185.758 25.06 185.756 25.06C185.755 25.06 185.754 25.06 185.753 25.06C185.752 25.06 185.75 25.06 185.749 25.06C185.748 25.06 185.747 25.06 185.746 25.06C185.744 25.06 185.743 25.06 185.742 25.06C185.741 25.06 185.74 25.06 185.738 25.06C185.737 25.06 185.736 25.06 185.735 25.06C185.734 25.06 185.732 25.06 185.731 25.06C185.73 25.06 185.729 25.06 185.728 25.06C185.726 25.06 185.725 25.06 185.724 25.06C185.723 25.06 185.722 25.06 185.72 25.06C185.719 25.06 185.718 25.06 185.717 25.06C185.716 25.06 185.714 25.06 185.713 25.06C185.712 25.06 185.711 25.06 185.71 25.06C185.708 25.06 185.707 25.06 185.706 25.06C185.705 25.06 185.704 25.06 185.702 25.06C185.701 25.06 185.7 25.06 185.699 25.06C185.698 25.06 185.696 25.06 185.695 25.06C185.694 25.06 185.693 25.06 185.692 25.06C185.69 25.06 185.689 25.06 185.688 25.06C185.687 25.06 185.686 25.06 185.684 25.06C185.683 25.06 185.682 25.06 185.681 25.06C185.68 25.06 185.678 25.06 185.677 25.06C185.676 25.06 185.675 25.06 185.674 25.06C185.673 25.06 185.671 25.06 185.67 25.06C185.669 25.06 185.668 25.06 185.667 25.06C185.665 25.06 185.664 25.06 185.663 25.06C185.662 25.06 185.661 25.06 185.659 25.06C185.658 25.06 185.657 25.06 185.656 25.06C185.655 25.06 185.653 25.06 185.652 25.06C185.651 25.06 185.65 25.06 185.649 25.06C185.648 25.06 185.646 25.06 185.645 25.06C185.644 25.06 185.643 25.06 185.642 25.06C185.64 25.06 185.639 25.06 185.638 25.06C185.637 25.06 185.636 25.06 185.634 25.06C185.633 25.06 185.632 25.06 185.631 25.06C185.63 25.06 185.628 25.06 185.627 25.06C185.626 25.06 185.625 25.06 185.624 25.06C185.623 25.06 185.621 25.06 185.62 25.06C185.619 25.06 185.618 25.06 185.617 25.06C185.615 25.06 185.614 25.06 185.613 25.06C185.612 25.06 185.611 25.06 185.609 25.06C185.608 25.06 185.607 25.06 185.606 25.06C185.605 25.06 185.604 25.06 185.602 25.06C185.601 25.06 185.6 25.06 185.599 25.06C185.598 25.06 185.596 25.06 185.595 25.06C185.594 25.06 185.593 25.06 185.592 25.06C185.591 25.06 185.589 25.06 185.588 25.06C185.587 25.06 185.586 25.06 185.585 25.06C185.583 25.06 185.582 25.06 185.581 25.06C185.58 25.06 185.579 25.06 185.578 25.06C185.576 25.06 185.575 25.06 185.574 25.06C185.573 25.06 185.572 25.06 185.57 25.06C185.569 25.06 185.568 25.06 185.567 25.06C185.566 25.06 185.565 25.06 185.563 25.06C185.562 25.06 185.561 25.06 185.56 25.06C185.559 25.06 185.557 25.06 185.556 25.06C185.555 25.06 185.554 25.06 185.553 25.06C185.552 25.06 185.55 25.06 185.549 25.06C185.548 25.06 185.547 25.06 185.546 25.06C185.544 25.06 185.543 25.06 185.542 25.06C185.541 25.06 185.54 25.06 185.539 25.06C185.537 25.06 185.536 25.06 185.535 25.06C185.534 25.06 185.533 25.06 185.531 25.06C185.53 25.06 185.529 25.06 185.528 25.06C185.527 25.06 185.526 25.06 185.524 25.06C185.523 25.06 185.522 25.06 185.521 25.06C185.52 25.06 185.519 25.06 185.517 25.06C185.516 25.06 185.515 25.06 185.514 25.06C185.513 25.06 185.511 25.06 185.51 25.06C185.509 25.06 185.508 25.06 185.507 25.06C185.506 25.06 185.504 25.06 185.503 25.06C185.502 25.06 185.501 25.06 185.5 25.06C185.499 25.06 185.497 25.06 185.496 25.06C185.495 25.06 185.494 25.06 185.493 25.06C185.492 25.06 185.49 25.06 185.489 25.06C185.488 25.06 185.487 25.06 185.486 25.06C185.484 25.06 185.483 25.06 185.482 25.06C185.481 25.06 185.48 25.06 185.479 25.06C185.477 25.06 185.476 25.06 185.475 25.06C185.474 25.06 185.473 25.06 185.472 25.06C185.47 25.06 185.469 25.06 185.468 25.06C185.467 25.06 185.466 25.06 185.465 25.06C185.463 25.06 185.462 25.06 185.461 25.06C185.46 25.06 185.459 25.06 185.458 25.06C185.456 25.06 185.455 25.06 185.454 25.06C185.453 25.06 185.452 25.06 185.451 25.06C185.449 25.06 185.448 25.06 185.447 25.06C185.446 25.06 185.445 25.06 185.444 25.06C185.442 25.06 185.441 25.06 185.44 25.06C185.439 25.06 185.438 25.06 185.437 25.06C185.435 25.06 185.434 25.06 185.433 25.06C185.432 25.06 185.431 25.06 185.43 25.06C185.428 25.06 185.427 25.06 185.426 25.06C185.425 25.06 185.424 25.06 185.423 25.06C185.421 25.06 185.42 25.06 185.419 25.06C185.418 25.06 185.417 25.06 185.416 25.06C185.414 25.06 185.413 25.06 185.412 25.06C185.411 25.06 185.41 25.06 185.409 25.06C185.407 25.06 185.406 25.06 185.405 25.06C185.404 25.06 185.403 25.06 185.402 25.06C185.4 25.06 185.399 25.06 185.398 25.06C185.397 25.06 185.396 25.06 185.395 25.06C185.393 25.06 185.392 25.06 185.391 25.06C185.39 25.06 185.389 25.06 185.388 25.06C185.386 25.06 185.385 25.06 185.384 25.06C185.383 25.06 185.382 25.06 185.381 25.06C185.38 25.06 185.378 25.06 185.377 25.06C185.376 25.06 185.375 25.06 185.374 25.06C185.373 25.06 185.371 25.06 185.37 25.06C185.369 25.06 185.368 25.06 185.367 25.06C185.366 25.06 185.364 25.06 185.363 25.06C185.362 25.06 185.361 25.06 185.36 25.06C185.359 25.06 185.357 25.06 185.356 25.06C185.355 25.06 185.354 25.06 185.353 25.06C185.352 25.06 185.351 25.06 185.349 25.06C185.348 25.06 185.347 25.06 185.346 25.06C185.345 25.06 185.344 25.06 185.342 25.06C185.341 25.06 185.34 25.06 185.339 25.06C185.338 25.06 185.337 25.06 185.336 25.06C185.334 25.06 185.333 25.06 185.332 25.06C185.331 25.06 185.33 25.06 185.329 25.06C185.327 25.06 185.326 25.06 185.325 25.06C185.324 25.06 185.323 25.06 185.322 25.06C185.32 25.06 185.319 25.06 185.318 25.06C185.317 25.06 185.316 25.06 185.315 25.06C185.314 25.06 185.312 25.06 185.311 25.06C185.31 25.06 185.309 25.06 185.308 25.06C185.307 25.06 185.305 25.06 185.304 25.06C185.303 25.06 185.302 25.06 185.301 25.06C185.3 25.06 185.299 25.06 185.297 25.06C185.296 25.06 185.295 25.06 185.294 25.06C185.293 25.06 185.292 25.06 185.291 25.06C185.289 25.06 185.288 25.06 185.287 25.06C185.286 25.06 185.285 25.06 185.284 25.06C185.282 25.06 185.281 25.06 185.28 25.06C185.279 25.06 185.278 25.06 185.277 25.06C185.276 25.06 185.274 25.06 185.273 25.06C185.272 25.06 185.271 25.06 185.27 25.06C185.269 25.06 185.268 25.06 185.266 25.06C185.265 25.06 185.264 25.06 185.263 25.06C185.262 25.06 185.261 25.06 185.259 25.06C185.258 25.06 185.257 25.06 185.256 25.06C185.255 25.06 185.254 25.06 185.253 25.06C185.251 25.06 185.25 25.06 185.249 25.06C185.248 25.06 185.247 25.06 185.246 25.06C185.245 25.06 185.243 25.06 185.242 25.06C185.241 25.06 185.24 25.06 185.239 25.06C185.238 25.06 185.237 25.06 185.235 25.06C185.234 25.06 185.233 25.06 185.232 25.06C185.231 25.06 185.23 25.06 185.229 25.06C185.227 25.06 185.226 25.06 185.225 25.06C185.224 25.06 185.223 25.06 185.222 25.06C185.221 25.06 185.219 25.06 185.218 25.06C185.217 25.06 185.216 25.06 185.215 25.06C185.214 25.06 185.213 25.06 185.211 25.06C185.21 25.06 185.209 25.06 185.208 25.06C185.207 25.06 185.206 25.06 185.205 25.06C185.203 25.06 185.202 25.06 185.201 25.06C185.2 25.06 185.199 25.06 185.198 25.06C185.197 25.06 185.195 25.06 185.194 25.06C185.193 25.06 185.192 25.06 185.191 25.06C185.19 25.06 185.189 25.06 185.187 25.06C185.186 25.06 185.185 25.06 185.184 25.06C185.183 25.06 185.182 25.06 185.181 25.06C185.18 25.06 185.178 25.06 185.177 25.06C185.176 25.06 185.175 25.06 185.174 25.06C185.173 25.06 185.172 25.06 185.17 25.06C185.169 25.06 185.168 25.06 185.167 25.06C185.166 25.06 185.165 25.06 185.164 25.06C185.162 25.06 185.161 25.06 185.16 25.06C185.159 25.06 185.158 25.06 185.157 25.06C185.156 25.06 185.154 25.06 185.153 25.06C185.152 25.06 185.151 25.06 185.15 25.06C185.149 25.06 185.148 25.06 185.147 25.06C185.145 25.06 185.144 25.06 185.143 25.06C185.142 25.06 185.141 25.06 185.14 25.06C185.139 25.06 185.137 25.06 185.136 25.06C185.135 25.06 185.134 25.06 185.133 25.06C185.132 25.06 185.131 25.06 185.13 25.06C185.128 25.06 185.127 25.06 185.126 25.06C185.125 25.06 185.124 25.06 185.123 25.06C185.122 25.06 185.12 25.06 185.119 25.06C185.118 25.06 185.117 25.06 185.116 25.06C185.115 25.06 185.114 25.06 185.113 25.06C185.111 25.06 185.11 25.06 185.109 25.06C185.108 25.06 185.107 25.06 185.106 25.06C185.105 25.06 185.104 25.06 185.102 25.06C185.101 25.06 185.1 25.06 185.099 25.06C185.098 25.06 185.097 25.06 185.096 25.06C185.094 25.06 185.093 25.06 185.092 25.06C185.091 25.06 185.09 25.06 185.089 25.06C185.088 25.06 185.087 25.06 185.085 25.06C185.084 25.06 185.083 25.06 185.082 25.06C185.081 25.06 185.08 25.06 185.079 25.06C185.078 25.06 185.076 25.06 185.075 25.06C185.074 25.06 185.073 25.06 185.072 25.06C185.071 25.06 185.07 25.06 185.069 25.06C185.067 25.06 185.066 25.06 185.065 25.06C185.064 25.06 185.063 25.06 185.062 25.06C185.061 25.06 185.06 25.06 185.058 25.06C185.057 25.06 185.056 25.06 185.055 25.06C185.054 25.06 185.053 25.06 185.052 25.06C185.051 25.06 185.049 25.06 185.048 25.06C185.047 25.06 185.046 25.06 185.045 25.06C185.044 25.06 185.043 25.06 185.042 25.06C185.04 25.06 185.039 25.06 185.038 25.06C185.037 25.06 185.036 25.06 185.035 25.06C185.034 25.06 185.033 25.06 185.031 25.06C185.03 25.06 185.029 25.06 185.028 25.06C185.027 25.06 185.026 25.06 185.025 25.06C185.024 25.06 185.023 25.06 185.021 25.06C185.02 25.06 185.019 25.06 185.018 25.06C185.017 25.06 185.016 25.06 185.015 25.06C185.014 25.06 185.012 25.06 185.011 25.06C185.01 25.06 185.009 25.06 185.008 25.06C185.007 25.06 185.006 25.06 185.005 25.06C185.003 25.06 185.002 25.06 185.001 25.06C185 25.06 184.999 25.06 184.998 25.06C184.997 25.06 184.996 25.06 184.995 25.06C184.993 25.06 184.992 25.06 184.991 25.06C184.99 25.06 184.989 25.06 184.988 25.06C184.987 25.06 184.986 25.06 184.985 25.06C184.983 25.06 184.982 25.06 184.981 25.06C184.98 25.06 184.979 25.06 184.978 25.06C184.977 25.06 184.976 25.06 184.974 25.06C184.973 25.06 184.972 25.06 184.971 25.06C184.97 25.06 184.969 25.06 184.968 25.06C184.967 25.06 184.966 25.06 184.964 25.06C184.963 25.06 184.962 25.06 184.961 25.06C184.96 25.06 184.959 25.06 184.958 25.06C184.957 25.06 184.956 25.06 184.954 25.06C184.953 25.06 184.952 25.06 184.951 25.06C184.95 25.06 184.949 25.06 184.948 25.06C184.947 25.06 184.946 25.06 184.944 25.06C184.943 25.06 184.942 25.06 184.941 25.06C184.94 25.06 184.939 25.06 184.938 25.06C184.937 25.06 184.936 25.06 184.934 25.06C184.933 25.06 184.932 25.06 184.931 25.06C184.93 25.06 184.929 25.06 184.928 25.06C184.927 25.06 184.926 25.06 184.924 25.06C184.923 25.06 184.922 25.06 184.921 25.06C184.92 25.06 184.919 25.06 184.918 25.06C184.917 25.06 184.916 25.06 184.914 25.06C184.913 25.06 184.912 25.06 184.911 25.06C184.91 25.06 184.909 25.06 184.908 25.06C184.907 25.06 184.906 25.06 184.904 25.06C184.903 25.06 184.902 25.06 184.901 25.06C184.9 25.06 184.899 25.06 184.898 25.06C184.897 25.06 184.896 25.06 184.895 25.06C184.893 25.06 184.892 25.06 184.891 25.06C184.89 25.06 184.889 25.06 184.888 25.06C184.887 25.06 184.886 25.06 184.885 25.06C184.883 25.06 184.882 25.06 184.881 25.06C184.88 25.06 184.879 25.06 184.878 25.06C184.877 25.06 184.876 25.06 184.875 25.06C184.874 25.06 184.872 25.06 184.871 25.06C184.87 25.06 184.869 25.06 184.868 25.06C184.867 25.06 184.866 25.06 184.865 25.06C184.864 25.06 184.863 25.06 184.861 25.06C184.86 25.06 184.859 25.06 184.858 25.06C184.857 25.06 184.856 25.06 184.855 25.06C184.854 25.06 184.853 25.06 184.852 25.06C184.85 25.06 184.849 25.06 184.848 25.06C184.847 25.06 184.846 25.06 184.845 25.06C184.844 25.06 184.843 25.06 184.842 25.06C184.841 25.06 184.839 25.06 184.838 25.06C184.837 25.06 184.836 25.06 184.835 25.06C184.834 25.06 184.833 25.06 184.832 25.06C184.831 25.06 184.83 25.06 184.828 25.06C184.827 25.06 184.826 25.06 184.825 25.06C184.824 25.06 184.823 25.06 184.822 25.06C184.821 25.06 184.82 25.06 184.819 25.06C184.817 25.06 184.816 25.06 184.815 25.06C184.814 25.06 184.813 25.06 184.812 25.06C184.811 25.06 184.81 25.06 184.809 25.06C184.808 25.06 184.807 25.06 184.805 25.06C184.804 25.06 184.803 25.06 184.802 25.06C184.801 25.06 184.8 25.06 184.799 25.06C184.798 25.06 184.797 25.06 184.796 25.06C184.794 25.06 184.793 25.06 184.792 25.06C184.791 25.06 184.79 25.06 184.789 25.06C184.788 25.06 184.787 25.06 184.786 25.06C184.785 25.06 184.784 25.06 184.782 25.06C184.781 25.06 184.78 25.06 184.779 25.06C184.778 25.06 184.777 25.06 184.776 25.06C184.775 25.06 184.774 25.06 184.773 25.06C184.772 25.06 184.77 25.06 184.769 25.06C184.768 25.06 184.767 25.06 184.766 25.06C184.765 25.06 184.764 25.06 184.763 25.06C184.762 25.06 184.761 25.06 184.76 25.06C184.758 25.06 184.757 25.06 184.756 25.06C184.755 25.06 184.754 25.06 184.753 25.06C184.752 25.06 184.751 25.06 184.75 25.06C184.749 25.06 184.748 25.06 184.746 25.06C184.745 25.06 184.744 25.06 184.743 25.06C184.742 25.06 184.741 25.06 184.74 25.06C184.739 25.06 184.738 25.06 184.737 25.06C184.736 25.06 184.734 25.06 184.733 25.06C184.732 25.06 184.731 25.06 184.73 25.06C184.729 25.06 184.728 25.06 184.727 25.06C184.726 25.06 184.725 25.06 184.724 25.06C184.723 25.06 184.721 25.06 184.72 25.06C184.719 25.06 184.718 25.06 184.717 25.06C184.716 25.06 184.715 25.06 184.714 25.06C184.713 25.06 184.712 25.06 184.711 25.06C184.71 25.06 184.708 25.06 184.707 25.06C184.706 25.06 184.705 25.06 184.704 25.06C184.703 25.06 184.702 25.06 184.701 25.06C184.7 25.06 184.699 25.06 184.698 25.06C184.697 25.06 184.695 25.06 184.694 25.06C184.693 25.06 184.692 25.06 184.691 25.06C184.69 25.06 184.689 25.06 184.688 25.06C184.687 25.06 184.686 25.06 184.685 25.06C184.684 25.06 184.682 25.06 184.681 25.06C184.68 25.06 184.679 25.06 184.678 25.06C184.677 25.06 184.676 25.06 184.675 25.06C184.674 25.06 184.673 25.06 184.672 25.06C184.671 25.06 184.67 25.06 184.668 25.06C184.667 25.06 184.666 25.06 184.665 25.06C184.664 25.06 184.663 25.06 184.662 25.06C184.661 25.06 184.66 25.06 184.659 25.06C184.658 25.06 184.657 25.06 184.656 25.06C184.654 25.06 184.653 25.06 184.652 25.06C184.651 25.06 184.65 25.06 184.649 25.06C184.648 25.06 184.647 25.06 184.646 25.06C184.645 25.06 184.644 25.06 184.643 25.06C184.642 25.06 184.64 25.06 184.639 25.06C184.638 25.06 184.637 25.06 184.636 25.06C184.635 25.06 184.634 25.06 184.633 25.06C184.632 25.06 184.631 25.06 184.63 25.06C184.629 25.06 184.628 25.06 184.626 25.06C184.625 25.06 184.624 25.06 184.623 25.06C184.622 25.06 184.621 25.06 184.62 25.06C184.619 25.06 184.618 25.06 184.617 25.06C184.616 25.06 184.615 25.06 184.614 25.06C184.613 25.06 184.611 25.06 184.61 25.06C184.609 25.06 184.608 25.06 184.607 25.06C184.606 25.06 184.605 25.06 184.604 25.06C184.603 25.06 184.602 25.06 184.601 25.06C184.6 25.06 184.599 25.06 184.598 25.06C184.596 25.06 184.595 25.06 184.594 25.06C184.593 25.06 184.592 25.06 184.591 25.06C184.59 25.06 184.589 25.06 184.588 25.06C184.587 25.06 184.586 25.06 184.585 25.06C184.584 25.06 184.583 25.06 184.581 25.06C184.58 25.06 184.579 25.06 184.578 25.06C184.577 25.06 184.576 25.06 184.575 25.06C184.574 25.06 184.573 25.06 184.572 25.06C184.571 25.06 184.57 25.06 184.569 25.06C184.568 25.06 184.567 25.06 184.565 25.06C184.564 25.06 184.563 25.06 184.562 25.06C184.561 25.06 184.56 25.06 184.559 25.06C184.558 25.06 184.557 25.06 184.556 25.06C184.555 25.06 184.554 25.06 184.553 25.06C184.552 25.06 184.551 25.06 184.549 25.06C184.548 25.06 184.547 25.06 184.546 25.06C184.545 25.06 184.544 25.06 184.543 25.06C184.542 25.06 184.541 25.06 184.54 25.06C184.539 25.06 184.538 25.06 184.537 25.06C184.536 25.06 184.535 25.06 184.534 25.06C184.532 25.06 184.531 25.06 184.53 25.06C184.529 25.06 184.528 25.06 184.527 25.06C184.526 25.06 184.525 25.06 184.524 25.06C184.523 25.06 184.522 25.06 184.521 25.06C184.52 25.06 184.519 25.06 184.518 25.06C184.517 25.06 184.515 25.06 184.514 25.06C184.513 25.06 184.512 25.06 184.511 25.06C184.51 25.06 184.509 25.06 184.508 25.06C184.507 25.06 184.506 25.06 184.505 25.06C184.504 25.06 184.503 25.06 184.502 25.06C184.501 25.06 184.5 25.06 184.499 25.06C184.497 25.06 184.496 25.06 184.495 25.06C184.494 25.06 184.493 25.06 184.492 25.06C184.491 25.06 184.49 25.06 184.489 25.06C184.488 25.06 184.487 25.06 184.486 25.06C184.485 25.06 184.484 25.06 184.483 25.06C184.482 25.06 184.481 25.06 184.48 25.06C184.478 25.06 184.477 25.06 184.476 25.06C184.475 25.06 184.474 25.06 184.473 25.06C184.472 25.06 184.471 25.06 184.47 25.06C184.469 25.06 184.468 25.06 184.467 25.06C184.466 25.06 184.465 25.06 184.464 25.06C184.463 25.06 184.462 25.06 184.461 25.06C184.459 25.06 184.458 25.06 184.457 25.06C184.456 25.06 184.455 25.06 184.454 25.06C184.453 25.06 184.452 25.06 184.451 25.06C184.45 25.06 184.449 25.06 184.448 25.06C184.447 25.06 184.446 25.06 184.445 25.06C184.444 25.06 184.443 25.06 184.442 25.06C184.441 25.06 184.439 25.06 184.438 25.06C184.437 25.06 184.436 25.06 184.435 25.06C184.434 25.06 184.433 25.06 184.432 25.06C184.431 25.06 184.43 25.06 184.429 25.06C184.428 25.06 184.427 25.06 184.426 25.06C184.425 25.06 184.424 25.06 184.423 25.06C184.422 25.06 184.421 25.06 184.42 25.06C184.418 25.06 184.417 25.06 184.416 25.06C184.415 25.06 184.414 25.06 184.413 25.06C184.412 25.06 184.411 25.06 184.41 25.06C184.409 25.06 184.408 25.06 184.407 25.06C184.406 25.06 184.405 25.06 184.404 25.06C184.403 25.06 184.402 25.06 184.401 25.06C184.4 25.06 184.399 25.06 184.398 25.06C184.396 25.06 184.395 25.06 184.394 25.06C184.393 25.06 184.392 25.06 184.391 25.06C184.39 25.06 184.389 25.06 184.388 25.06C184.387 25.06 184.386 25.06 184.385 25.06C184.384 25.06 184.383 25.06 184.382 25.06C184.381 25.06 184.38 25.06 184.379 25.06C184.378 25.06 184.377 25.06 184.376 25.06C184.375 25.06 184.373 25.06 184.372 25.06C184.371 25.06 184.37 25.06 184.369 25.06C184.368 25.06 184.367 25.06 184.366 25.06C184.365 25.06 184.364 25.06 184.363 25.06C184.362 25.06 184.361 25.06 184.36 25.06C184.359 25.06 184.358 25.06 184.357 25.06C184.356 25.06 184.355 25.06 184.354 25.06C184.353 25.06 184.352 25.06 184.351 25.06C184.35 25.06 184.349 25.06 184.347 25.06C184.346 25.06 184.345 25.06 184.344 25.06C184.343 25.06 184.342 25.06 184.341 25.06V27.06ZM186.129 27.0592C186.761 27.0339 187.419 27.0086 188.102 26.9833L188.028 24.9847C187.343 25.0101 186.684 25.0354 186.049 25.0608L186.129 27.0592ZM188.102 26.9833C188.786 26.958 189.47 26.9326 190.154 26.9073L190.08 24.9087C189.396 24.934 188.712 24.9594 188.028 24.9847L188.102 26.9833ZM190.153 26.9074C190.878 26.8815 191.79 26.83 192.885 26.7536L192.746 24.7584C191.662 24.834 190.775 24.8839 190.082 24.9086L190.153 26.9074ZM192.883 26.7537C193.995 26.6779 195.373 26.5894 197.019 26.4881L196.896 24.4919C195.248 24.5933 193.865 24.6821 192.747 24.7583L192.883 26.7537ZM195.957 25.49V30.62H197.957V25.49H195.957Z" fill="#00AEEF" mask="url(#path-7-outside-1_35_220)"/>
<defs>
<clipPath id="clip0_35_220">
<rect width="27" height="27" fill="white" transform="translate(0 4)"/>
</clipPath>
</defs>
</svg>
