<svg width="198" height="40" viewBox="0 0 198 40" fill="none" xmlns="http://www.w3.org/2000/svg">
<g clip-path="url(#clip0_4_99)">
<mask id="mask0_4_99" style="mask-type:luminance" maskUnits="userSpaceOnUse" x="0" y="18" width="21" height="14">
<path d="M0.202515 18.4868H20.1314V31.7706H0.202515V18.4868Z" fill="white"/>
</mask>
<g mask="url(#mask0_4_99)">
<path d="M13.487 18.4867C9.96368 18.4867 6.58509 19.8862 4.09392 22.3775C1.60264 24.8686 0.203125 28.2474 0.203125 31.7706H13.4874C15.8603 31.7706 18.0531 30.5047 19.2397 28.4495C20.426 26.3945 20.426 23.8627 19.2397 21.8076C18.0532 19.7524 15.8604 18.4866 13.4874 18.4866L13.487 18.4867Z" fill="#00AEEF"/>
</g>
<mask id="mask1_4_99" style="mask-type:luminance" maskUnits="userSpaceOnUse" x="20" y="18" width="7" height="14">
<path d="M20.0786 18.4868H26.7706V31.7706H20.0786V18.4868Z" fill="white"/>
</mask>
<g mask="url(#mask1_4_99)">
<path d="M20.1287 25.1288C20.1287 26.8904 20.8287 28.5798 22.0741 29.8254C23.3198 31.0711 25.0093 31.7709 26.7708 31.7709V18.4871C25.0093 18.4871 23.3198 19.1868 22.0741 20.4325C20.8287 21.6779 20.1287 23.3675 20.1287 25.129V25.1288Z" fill="#00AEEF"/>
</g>
<mask id="mask2_4_99" style="mask-type:luminance" maskUnits="userSpaceOnUse" x="0" y="5" width="27" height="14">
<path d="M0.202515 5.20239H26.7706V18.4867H0.202515V5.20239Z" fill="white"/>
</mask>
<g mask="url(#mask2_4_99)">
<path d="M13.4868 5.20239H0.202515C0.202515 8.72552 1.60203 12.1043 4.09331 14.5954C6.58459 17.0865 9.96317 18.4862 13.4864 18.4862H26.7701C26.7701 14.9629 25.3706 11.5844 22.8793 9.09319C20.3881 6.60191 17.0095 5.20239 13.4863 5.20239H13.4868Z" fill="#00AEEF"/>
</g>
</g>
<path d="M28.7603 26.49C35.7017 26.87 40.401 27.06 42.8583 27.06C43.441 27.06 43.897 26.8953 44.2263 26.566C44.581 26.2113 44.7583 25.7427 44.7583 25.16V21.74H36.0183C33.3583 21.74 31.4203 21.1447 30.2043 19.954C29.0137 18.738 28.4183 16.8 28.4183 14.14V13C28.4183 10.34 29.0137 8.41467 30.2043 7.224C31.4203 6.008 33.3583 5.4 36.0183 5.4H49.3563V10.72H37.5383C36.0183 10.72 35.2583 11.48 35.2583 13V13.76C35.2583 15.28 36.0183 16.04 37.5383 16.04H44.3783C46.861 16.04 48.685 16.6227 49.8503 17.788C51.0157 18.9533 51.5983 20.7773 51.5983 23.26V25.16C51.5983 27.6427 51.0157 29.4667 49.8503 30.632C48.685 31.7973 46.861 32.38 44.3783 32.38C43.0863 32.38 41.7183 32.3547 40.2743 32.304L36.7783 32.152C34.1943 32.0253 31.5217 31.848 28.7603 31.62V26.49ZM61.8554 32H55.0154V5.4H61.8554V15.85H65.2754L71.2034 5.4H78.4234L70.9754 18.51L78.3854 32H71.1654L65.2754 21.17H61.8554V32ZM77.655 5.4H84.875L91.145 18.32L97.415 5.4H104.635L94.565 24.97V32H87.725V24.97L77.655 5.4Z" fill="#00AEEF"/>
<path d="M106.152 5.4H121.352C123.835 5.4 125.659 5.97 126.824 7.11C127.989 8.22467 128.572 9.93467 128.572 12.24C128.572 13.76 128.243 15.0013 127.584 15.964C126.925 16.9013 126.115 17.56 125.152 17.94C127.204 18.4973 128.597 19.8653 129.332 22.044C129.585 22.8293 129.712 23.7413 129.712 24.78C129.712 27.2627 129.129 29.0867 127.964 30.252C126.799 31.4173 124.975 32 122.492 32H106.152V5.4ZM122.872 23.64C122.872 22.12 122.112 21.36 120.592 21.36H112.992V26.68H120.592C122.112 26.68 122.872 25.92 122.872 24.4V23.64ZM121.732 13C121.732 11.48 120.972 10.72 119.452 10.72H112.992V16.04H119.452C120.972 16.04 121.732 15.28 121.732 13.76V13ZM133.131 5.4H149.091C151.751 5.4 153.676 6.008 154.867 7.224C156.083 8.41467 156.691 10.34 156.691 13V16.42C156.691 18.5227 156.336 20.1567 155.627 21.322C154.943 22.4873 153.841 23.26 152.321 23.64L157.071 32H149.661L145.291 24.02H139.971V32H133.131V5.4ZM149.851 13C149.851 11.48 149.091 10.72 147.571 10.72H139.971V18.7H147.571C149.091 18.7 149.851 17.94 149.851 16.42V13ZM173.02 32H159.34V26.68H162.76V10.72H159.34V5.4H173.02V10.72H169.6V26.68H173.02V32ZM196.957 31.62C191.308 32.1267 186.621 32.38 182.897 32.38C180.415 32.38 178.591 31.7973 177.425 30.632C176.26 29.4667 175.677 27.6427 175.677 25.16V13C175.677 10.34 176.273 8.41467 177.463 7.224C178.679 6.008 180.617 5.4 183.277 5.4H196.957V10.72H184.797C183.277 10.72 182.517 11.48 182.517 13V25.16C182.517 25.7427 182.682 26.2113 183.011 26.566C183.366 26.8953 183.809 27.06 184.341 27.06C184.873 27.06 185.456 27.06 186.089 27.06C186.723 27.0347 187.381 27.0093 188.065 26.984C188.749 26.9587 189.433 26.9333 190.117 26.908C190.827 26.8827 191.726 26.832 192.815 26.756C193.93 26.68 195.311 26.5913 196.957 26.49V31.62Z" fill="#00AEEF"/>
<path d="M106.152 5.4H121.352C123.835 5.4 125.659 5.97 126.824 7.11C127.989 8.22467 128.572 9.93467 128.572 12.24C128.572 13.76 128.243 15.0013 127.584 15.964C126.925 16.9013 126.115 17.56 125.152 17.94C127.204 18.4973 128.597 19.8653 129.332 22.044C129.585 22.8293 129.712 23.7413 129.712 24.78C129.712 27.2627 129.129 29.0867 127.964 30.252C126.799 31.4173 124.975 32 122.492 32H106.152V5.4ZM122.872 23.64C122.872 22.12 122.112 21.36 120.592 21.36H112.992V26.68H120.592C122.112 26.68 122.872 25.92 122.872 24.4V23.64ZM121.732 13C121.732 11.48 120.972 10.72 119.452 10.72H112.992V16.04H119.452C120.972 16.04 121.732 15.28 121.732 13.76V13ZM133.131 5.4H149.091C151.751 5.4 153.676 6.008 154.867 7.224C156.083 8.41467 156.691 10.34 156.691 13V16.42C156.691 18.5227 156.336 20.1567 155.627 21.322C154.943 22.4873 153.841 23.26 152.321 23.64L157.071 32H149.661L145.291 24.02H139.971V32H133.131V5.4ZM149.851 13C149.851 11.48 149.091 10.72 147.571 10.72H139.971V18.7H147.571C149.091 18.7 149.851 17.94 149.851 16.42V13ZM173.02 32H159.34V26.68H162.76V10.72H159.34V5.4H173.02V10.72H169.6V26.68H173.02V32ZM196.957 31.62C191.308 32.1267 186.621 32.38 182.897 32.38C180.415 32.38 178.591 31.7973 177.425 30.632C176.26 29.4667 175.677 27.6427 175.677 25.16V13C175.677 10.34 176.273 8.41467 177.463 7.224C178.679 6.008 180.617 5.4 183.277 5.4H196.957V10.72H184.797C183.277 10.72 182.517 11.48 182.517 13V25.16C182.517 25.7427 182.682 26.2113 183.011 26.566C183.366 26.8953 183.809 27.06 184.341 27.06C184.873 27.06 185.456 27.06 186.089 27.06C186.723 27.0347 187.381 27.0093 188.065 26.984C188.749 26.9587 189.433 26.9333 190.117 26.908C190.827 26.8827 191.726 26.832 192.815 26.756C193.93 26.68 195.311 26.5913 196.957 26.49V31.62Z" fill="#2A2A2A"/>
<defs>
<clipPath id="clip0_4_99">
<rect width="27" height="27" fill="white" transform="translate(0 5)"/>
</clipPath>
</defs>
</svg>
