<svg width="68" height="68" viewBox="0 0 68 68" fill="none" xmlns="http://www.w3.org/2000/svg">
<g clip-path="url(#clip0_10_741)">
<path d="M42.4499 35.8247L42.3913 35.8252L42.1098 35.5082L41.6593 35.5989L41.6007 35.5994C41.6007 35.5994 41.5752 35.5706 41.6082 35.5413L41.8613 35.1619L41.7045 34.7858L41.7119 34.7277L41.7449 34.6984L42.1731 34.782L42.5361 34.4597C42.5361 34.4597 42.5691 34.4305 42.5946 34.4593L42.6202 34.4881L42.6599 34.8656L43.0478 35.0366L43.0734 35.0654L43.0404 35.0947L42.6336 35.3012L42.4829 35.7954L42.4499 35.8247Z" fill="#00AEEF"/>
<path d="M31.4639 25.8434L31.0134 25.9341L30.9548 25.9346C30.9548 25.9346 30.9292 25.9058 30.9622 25.8765L31.2154 25.4971L31.0585 25.121L31.0659 25.0629L31.0989 25.0336L31.5272 25.1172L31.8901 24.7949C31.8901 24.7949 31.9231 24.7656 31.9487 24.7945L31.9743 24.8233L32.0066 25.2584L32.3945 25.4295L32.4201 25.4583L32.3871 25.4876L31.9803 25.6941L31.8955 26.1302L31.8625 26.1594L31.8039 26.1599L31.4639 25.8434Z" fill="#00AEEF"/>
<path d="M17.9385 35.3276L18.3014 35.0054C18.3014 35.0054 18.3344 34.9761 18.36 35.0049L18.3856 35.0338L18.3923 35.4401L18.7802 35.6111L18.8058 35.6399L18.7728 35.6692L18.3661 35.8757L18.2812 36.3118L18.2482 36.3411L18.1896 36.3416L17.9082 36.0245L17.4577 36.1153L17.3991 36.1158C17.3991 36.1158 17.3735 36.0869 17.4065 36.0576L17.6597 35.6782L17.5028 35.3021L17.5102 35.244L17.5432 35.2147L17.9385 35.3276Z" fill="#00AEEF"/>
<path d="M31.8444 48.3325L32.2073 48.0103C32.2073 48.0103 32.2403 47.981 32.2659 48.0098L32.2915 48.0386L32.3238 48.4738L32.7117 48.6448L32.7373 48.6736L32.7043 48.7029L32.2976 48.9094L32.2127 49.3455L32.1797 49.3748L32.1211 49.3752L31.8397 49.0582L31.3892 49.149L31.3306 49.1494C31.3306 49.1494 31.305 49.1206 31.338 49.0913L31.5912 48.7119L31.4343 48.3358L31.4417 48.2777L31.4747 48.2484L31.8444 48.3325Z" fill="#00AEEF"/>
<path d="M43.3176 25.5733C43.1104 24.6754 42.8664 23.6036 43.7243 22.8419C43.9222 22.6661 44.1566 22.6642 44.3101 22.8371C44.4636 23.01 44.434 23.2425 44.236 23.4183C43.8401 23.7698 43.9343 24.4076 44.1162 25.2765C44.3234 26.1745 44.5674 27.2463 43.7095 28.008C42.8519 28.7694 41.875 28.4002 40.9491 28.0884C40.082 27.7764 39.4854 27.6361 39.0898 27.9874C38.6938 28.3389 38.7881 28.9767 38.97 29.8456C39.1771 30.7436 39.4212 31.8154 38.5633 32.5771C37.7056 33.3385 36.7288 32.9693 35.8029 32.6575C34.9358 32.3455 34.3392 32.2052 33.9435 32.5565C33.5476 32.908 33.6418 33.5458 33.8237 34.4147C34.0309 35.3126 34.2749 36.3845 33.417 37.1461C32.5594 37.9076 31.5825 37.5384 30.6566 37.2266C29.7895 36.9146 29.1929 36.7742 28.7973 37.1255C28.4013 37.4771 28.4956 38.1149 28.6775 38.9838C28.8846 39.8817 29.1287 40.9535 28.2708 41.7152C27.4131 42.4767 26.4363 42.1075 25.5104 41.7957C24.6433 41.4836 24.0467 41.3433 23.651 41.6946C23.453 41.8704 23.2187 41.8723 23.0652 41.6994C22.9117 41.5265 22.9413 41.294 23.1393 41.1182C23.9969 40.3568 24.9738 40.726 25.8996 41.0378C26.7667 41.3498 27.3633 41.4901 27.759 41.1388C28.1549 40.7873 28.0607 40.1495 27.8788 39.2806C27.6716 38.3826 27.4276 37.3108 28.2855 36.5491C29.1432 35.7877 30.12 36.1569 31.0459 36.4687C31.913 36.7807 32.5096 36.921 32.9053 36.5697C33.3012 36.2182 33.2069 35.5804 33.0251 34.7115C32.8179 33.8136 32.5739 32.7417 33.4318 31.9801C34.2894 31.2186 35.2663 31.5878 36.1921 31.8996C37.0592 32.2116 37.6558 32.352 38.0515 32.0007C38.4475 31.6491 38.3532 31.0113 38.1713 30.1424C37.9641 29.2445 37.7201 28.1727 38.578 27.411C39.4357 26.6495 40.4125 27.0187 41.3384 27.3305C42.2055 27.6426 42.7691 27.8122 43.1978 27.4316C43.6264 27.051 43.4992 26.4424 43.3176 25.5733Z" fill="#00AEEF"/>
<path d="M27.4474 18.7953C27.6743 18.8515 27.7619 19.083 27.6736 19.316C27.512 19.6656 28.1226 20.1539 28.6309 20.5271C29.3182 21.1019 30.1155 21.734 29.7954 22.6362C29.417 23.5391 28.3479 23.6636 27.3372 23.788C26.6268 23.8518 25.8253 23.9453 25.689 24.3236C25.5274 24.6733 26.1379 25.1615 26.6463 25.5348C27.3336 26.1095 28.1309 26.7417 27.8108 27.6438C27.4323 28.5467 26.3633 28.6713 25.3525 28.7956C24.6421 28.8594 23.8406 28.953 23.7044 29.3313C23.5428 29.6809 24.1277 30.1404 24.6617 30.5424C25.349 31.1172 26.1463 31.7493 25.8261 32.6515C25.4477 33.5544 24.3787 33.6789 23.3679 33.8033C22.6575 33.8671 21.856 33.9606 21.7197 34.3389C21.5837 34.7174 22.1687 35.1768 22.677 35.5501C23.3643 36.1248 24.1616 36.757 23.8415 37.6591C23.4631 38.562 22.394 38.6866 21.3833 38.8109C20.6729 38.8747 19.8714 38.9683 19.7351 39.3466C19.6469 39.5795 19.3977 39.6976 19.1708 39.6414C19.0867 39.6131 19.0611 39.5843 19.0099 39.5266C18.9331 39.4402 18.8968 39.2663 18.9446 39.1208C19.323 38.2179 20.392 38.0933 21.4028 37.969C22.1132 37.9051 22.9147 37.8116 23.051 37.4333C23.187 37.0549 22.602 36.5954 22.0937 36.2222C21.4064 35.6474 20.6091 35.0153 20.9292 34.1131C21.3076 33.2102 22.3767 33.0857 23.3874 32.9613C24.0979 32.8975 24.8993 32.8039 25.0356 32.4257C25.1972 32.076 24.5867 31.5877 24.0783 31.2145C23.391 30.6398 22.5937 30.0076 22.9138 29.1055C23.2923 28.2026 24.3613 28.078 25.3721 27.9537C26.0825 27.8898 26.884 27.7963 27.0202 27.418C27.1819 27.0684 26.5713 26.5801 26.063 26.2069C25.3757 25.6321 24.5784 25 24.8985 24.0978C25.2769 23.1949 26.3459 23.0704 27.3567 22.946C28.0671 22.8822 28.8686 22.7887 29.0049 22.4104C29.1665 22.0607 28.5559 21.5724 28.0476 21.1992C27.3603 20.6245 26.563 19.9923 26.8831 19.0902C26.9969 18.8861 27.2205 18.7391 27.4474 18.7953Z" fill="#00AEEF"/>
<path d="M27.2028 45.9611C27.5718 46.5096 27.9588 47.1449 28.325 47.0258C28.7169 46.9355 28.9046 46.1505 29.052 45.4526C29.2621 44.493 29.5456 43.4172 30.4868 43.148C31.4282 42.8792 31.9613 43.7454 32.4432 44.554C32.8122 45.1025 33.1992 45.7378 33.5324 45.648C33.8987 45.5289 34.112 44.7727 34.2595 44.0748C34.4696 43.1152 34.753 42.0394 35.6942 41.7703C36.6356 41.5014 37.1687 42.3677 37.6506 43.1762C38.0196 43.7248 38.4066 44.36 38.7398 44.2702C39.1061 44.1511 39.3194 43.3949 39.4669 42.697C39.677 41.7374 39.9604 40.6616 40.9016 40.3925C41.843 40.1236 42.3761 40.9899 42.858 41.7985C43.227 42.347 43.614 42.9822 43.9472 42.8924C44.2806 42.8026 44.5268 42.0171 44.6743 41.3193C44.8844 40.3597 45.1678 39.2838 46.109 39.0147C46.3507 38.9547 46.5373 39.0983 46.5992 39.301C46.6282 39.533 46.4558 39.7376 46.2396 39.8264C45.8733 39.9455 45.6601 40.7017 45.5126 41.3995C45.3025 42.3591 45.0191 43.435 44.0779 43.7041C43.1365 43.973 42.6034 43.1067 42.1215 42.2981C41.7525 41.7496 41.3655 41.1144 41.0322 41.2042C40.6659 41.3232 40.4527 42.0795 40.3052 42.7773C40.0951 43.7369 39.8117 44.8127 38.8705 45.0819C37.9291 45.3508 37.396 44.4845 36.9141 43.6759C36.5451 43.1274 36.1581 42.4921 35.8248 42.582C35.4585 42.701 35.2453 43.4572 35.0978 44.1551C34.8877 45.1147 34.6043 46.1905 33.6631 46.4597C32.7217 46.7286 32.1886 45.8623 31.7067 45.0537C31.3377 44.5052 30.9507 43.8699 30.6174 43.9597C30.2255 44.05 30.0379 44.835 29.8904 45.5329C29.6803 46.4925 29.3969 47.5683 28.4557 47.8375C27.5143 48.1063 26.9556 47.2112 26.4993 46.4315C26.1303 45.8829 25.7433 45.2477 25.41 45.3375C25.2599 45.3678 25.1171 45.3399 25.0148 45.2246C24.9636 45.167 24.938 45.1382 24.9198 45.0512C24.8909 44.8192 25.0632 44.6146 25.2794 44.5258C26.2132 44.3148 26.7465 45.1813 27.2028 45.9611Z" fill="#00AEEF"/>
<path d="M36.8724 37.1182C36.931 37.1178 36.931 37.1178 36.9565 37.1466L37.3181 37.7532L38.0541 37.7182C38.1127 37.7178 38.1383 37.7466 38.1639 37.7754C38.1895 37.8042 38.1821 37.8623 38.1491 37.8916L37.6061 38.4763L37.7516 39.1718C37.7772 39.2006 37.7442 39.2299 37.7112 39.2592C37.6782 39.2885 37.6196 39.289 37.6196 39.289L36.9462 39.0622L36.3011 39.5319C36.2681 39.5612 36.2096 39.5617 36.184 39.5328L36.1584 39.504C36.1328 39.4752 36.1328 39.4752 36.1402 39.4171L36.2365 38.6616L35.7025 38.2596C35.677 38.2307 35.6514 38.2019 35.6844 38.1726C35.6918 38.1145 35.7248 38.0852 35.7833 38.0847L36.516 37.8466L36.8136 37.1185C36.7808 37.148 36.8138 37.1187 36.8724 37.1182Z" fill="#00AEEF"/>
<path d="M28.515 32.6876C28.515 32.6876 28.4564 32.6881 28.4308 32.6593L28.4052 32.6304C28.3796 32.6016 28.387 32.5435 28.42 32.5142L28.9628 31.9293L28.8173 31.2338C28.7917 31.205 28.8247 31.1757 28.8577 31.1464C28.8907 31.1171 28.9493 31.1166 28.9493 31.1166L29.5897 31.3727L30.344 30.9606C30.377 30.9313 30.4356 30.9308 30.4612 30.9597C30.4868 30.9885 30.5123 31.0173 30.5049 31.0754L30.383 31.8021L30.9096 32.2623C30.9352 32.2911 30.9608 32.3199 30.9278 32.3492C30.9204 32.4073 30.8874 32.4366 30.8288 32.4371L30.1036 32.6171L29.7804 33.3164L29.6814 33.4043C29.6484 33.4336 29.5972 33.3759 29.5972 33.3759L29.2942 32.7688L28.515 32.6876Z" fill="#00AEEF"/>
<path d="M36.1198 18.4634C36.0612 18.4639 36.0356 18.435 36.0356 18.435L35.7326 17.8279L35.004 17.8048C35.004 17.8048 34.9454 17.8053 34.9198 17.7765L34.8943 17.7476C34.8687 17.7188 34.8761 17.6607 34.9091 17.6314L35.4518 17.0465L35.3064 16.351C35.2808 16.3222 35.3138 16.2929 35.3468 16.2636C35.3798 16.2343 35.4383 16.2338 35.4383 16.2338L36.0787 16.4899L36.7164 16.0783C36.7494 16.049 36.808 16.0486 36.8336 16.0774C36.8591 16.1062 36.8847 16.135 36.8773 16.1931L36.7554 16.9198L37.282 17.38C37.3076 17.4088 37.3332 17.4376 37.3002 17.4669C37.2928 17.525 37.2598 17.5543 37.2012 17.5548L36.476 17.7348L36.1527 18.4341C36.1783 18.4629 36.1454 18.4922 36.1198 18.4634Z" fill="#00AEEF"/>
<path d="M50.1603 35.0082C50.1273 35.0375 50.0687 35.038 50.0431 35.0092L49.4835 34.5783L48.7765 34.8453C48.7435 34.8746 48.7179 34.8457 48.6923 34.8169C48.6667 34.7881 48.6741 34.73 48.6741 34.73L48.9974 34.0307L48.6028 33.4534C48.5772 33.4246 48.5846 33.3664 48.6176 33.3371C48.6506 33.3078 48.6836 33.2786 48.7422 33.2781L49.4782 33.2431L49.9623 32.6586C49.9953 32.6293 50.0283 32.6 50.0539 32.6288C50.1125 32.6284 50.1381 32.6572 50.1307 32.7153L50.2761 33.4108L50.9825 33.6082L51.0592 33.6947C51.0848 33.7235 51.0518 33.7528 51.0188 33.7821L50.3482 34.223L50.2848 34.9491C50.2263 34.9496 50.1932 34.9789 50.1603 35.0082Z" fill="#00AEEF"/>
<path d="M37.016 21.5328C37.0745 21.5323 37.0745 21.5323 37.1001 21.5611L37.4617 22.1678L38.1977 22.1328C38.2563 22.1323 38.2819 22.1611 38.3075 22.1899C38.3331 22.2187 38.3257 22.2769 38.2927 22.3062L37.7755 22.9199L37.928 23.5568C37.9535 23.5856 37.9206 23.6149 37.8876 23.6442C37.8546 23.6735 37.796 23.674 37.796 23.674L37.1226 23.4472L36.4775 23.9169C36.4445 23.9462 36.386 23.9467 36.3604 23.9179L36.3348 23.889C36.3092 23.8602 36.3092 23.8602 36.3166 23.8021L36.4129 23.0466L35.8789 22.6446C35.8533 22.6157 35.8278 22.5869 35.8608 22.5576C35.8682 22.4995 35.9012 22.4702 35.9597 22.4697L36.6924 22.2316L36.99 21.5035C36.983 21.5621 37.016 21.5328 37.016 21.5328Z" fill="#00AEEF"/>
</g>
<defs>
<clipPath id="clip0_10_741">
<rect width="48" height="48" fill="white" transform="translate(31.8685 67.7628) rotate(-131.6)"/>
</clipPath>
</defs>
</svg>
